<mxfile host="app.diagrams.net" agent="Mozilla/5.0 (Macintosh; Intel Mac OS X 10_15_7) AppleWebKit/605.1.15 (KHTML, like Gecko) Version/26.0.1 Safari/605.1.15" version="28.2.7">
  <diagram name="Page-1" id="7hSo2D8J2Y3TmOuqw3LV">
    <mxGraphModel dx="2612" dy="1744" grid="1" gridSize="10" guides="1" tooltips="1" connect="1" arrows="1" fold="1" page="1" pageScale="1" pageWidth="4681" pageHeight="3300" math="0" shadow="0">
      <root>
        <mxCell id="0" />
        <mxCell id="1" parent="0" />
        <mxCell id="LNgfw14nGwIQjow6nMsd-1" value="crm_cust_info" style="swimlane;fontStyle=0;childLayout=stackLayout;horizontal=1;startSize=30;horizontalStack=0;resizeParent=1;resizeParentMax=0;resizeLast=0;collapsible=1;marginBottom=0;whiteSpace=wrap;html=1;rounded=1;fillColor=#0050ef;fontColor=#ffffff;strokeColor=#001DBC;glass=0;" vertex="1" parent="1">
          <mxGeometry x="505" y="470" width="140" height="110" as="geometry" />
        </mxCell>
        <mxCell id="LNgfw14nGwIQjow6nMsd-2" value="cst_id" style="text;strokeColor=none;fillColor=none;align=left;verticalAlign=middle;spacingLeft=4;spacingRight=4;overflow=hidden;points=[[0,0.5],[1,0.5]];portConstraint=eastwest;rotatable=0;whiteSpace=wrap;html=1;" vertex="1" parent="LNgfw14nGwIQjow6nMsd-1">
          <mxGeometry y="30" width="140" height="30" as="geometry" />
        </mxCell>
        <mxCell id="LNgfw14nGwIQjow6nMsd-21" value="cst_key" style="text;strokeColor=none;fillColor=none;align=left;verticalAlign=middle;spacingLeft=4;spacingRight=4;overflow=hidden;points=[[0,0.5],[1,0.5]];portConstraint=eastwest;rotatable=0;whiteSpace=wrap;html=1;" vertex="1" parent="LNgfw14nGwIQjow6nMsd-1">
          <mxGeometry y="60" width="140" height="30" as="geometry" />
        </mxCell>
        <mxCell id="LNgfw14nGwIQjow6nMsd-114" value="&lt;font&gt;CUSTOMER&lt;/font&gt;" style="text;html=1;strokeColor=#C73500;fillColor=light-dark(#FA6800,#FF6666);align=center;verticalAlign=middle;whiteSpace=wrap;overflow=hidden;fontSize=12;fontStyle=1;fontColor=#000000;" vertex="1" parent="LNgfw14nGwIQjow6nMsd-1">
          <mxGeometry y="90" width="140" height="20" as="geometry" />
        </mxCell>
        <mxCell id="LNgfw14nGwIQjow6nMsd-5" value="Customer Information" style="text;html=1;whiteSpace=wrap;strokeColor=none;fillColor=none;align=center;verticalAlign=middle;rounded=0;" vertex="1" parent="1">
          <mxGeometry x="510" y="430" width="130" height="30" as="geometry" />
        </mxCell>
        <mxCell id="LNgfw14nGwIQjow6nMsd-6" value="crm_prd_info" style="swimlane;fontStyle=0;childLayout=stackLayout;horizontal=1;startSize=30;horizontalStack=0;resizeParent=1;resizeParentMax=0;resizeLast=0;collapsible=1;marginBottom=0;whiteSpace=wrap;html=1;rounded=1;fillColor=#0050ef;fontColor=#ffffff;strokeColor=#001DBC;glass=0;" vertex="1" parent="1">
          <mxGeometry x="505" y="310" width="140" height="80" as="geometry" />
        </mxCell>
        <mxCell id="LNgfw14nGwIQjow6nMsd-7" value="prd_key" style="text;strokeColor=none;fillColor=none;align=left;verticalAlign=middle;spacingLeft=4;spacingRight=4;overflow=hidden;points=[[0,0.5],[1,0.5]];portConstraint=eastwest;rotatable=0;whiteSpace=wrap;html=1;" vertex="1" parent="LNgfw14nGwIQjow6nMsd-6">
          <mxGeometry y="30" width="140" height="30" as="geometry" />
        </mxCell>
        <mxCell id="LNgfw14nGwIQjow6nMsd-112" style="edgeStyle=orthogonalEdgeStyle;rounded=0;orthogonalLoop=1;jettySize=auto;html=1;exitX=0.75;exitY=1;exitDx=0;exitDy=0;entryX=0.75;entryY=0.5;entryDx=0;entryDy=0;entryPerimeter=0;" edge="1" parent="LNgfw14nGwIQjow6nMsd-6" source="LNgfw14nGwIQjow6nMsd-110" target="LNgfw14nGwIQjow6nMsd-110">
          <mxGeometry relative="1" as="geometry" />
        </mxCell>
        <mxCell id="LNgfw14nGwIQjow6nMsd-110" value="&lt;font&gt;PRODUCT&lt;/font&gt;" style="text;html=1;strokeColor=light-dark(#FA6800,#3333FF);fillColor=light-dark(#FA6800,#3333FF);align=center;verticalAlign=middle;whiteSpace=wrap;overflow=hidden;fontSize=12;fontStyle=1;fontColor=#000000;" vertex="1" parent="LNgfw14nGwIQjow6nMsd-6">
          <mxGeometry y="60" width="140" height="20" as="geometry" />
        </mxCell>
        <mxCell id="LNgfw14nGwIQjow6nMsd-8" value="Current &amp;amp; history Product information" style="text;html=1;whiteSpace=wrap;strokeColor=none;fillColor=none;align=center;verticalAlign=middle;rounded=0;" vertex="1" parent="1">
          <mxGeometry x="510" y="270" width="130" height="30" as="geometry" />
        </mxCell>
        <mxCell id="LNgfw14nGwIQjow6nMsd-9" value="crm_sales_details" style="swimlane;fontStyle=0;childLayout=stackLayout;horizontal=1;startSize=30;horizontalStack=0;resizeParent=1;resizeParentMax=0;resizeLast=0;collapsible=1;marginBottom=0;whiteSpace=wrap;html=1;rounded=1;fillColor=#0050ef;fontColor=#ffffff;strokeColor=#001DBC;glass=0;" vertex="1" parent="1">
          <mxGeometry x="250" y="370" width="140" height="110" as="geometry" />
        </mxCell>
        <mxCell id="LNgfw14nGwIQjow6nMsd-10" value="prd_key" style="text;strokeColor=none;fillColor=none;align=left;verticalAlign=middle;spacingLeft=4;spacingRight=4;overflow=hidden;points=[[0,0.5],[1,0.5]];portConstraint=eastwest;rotatable=0;whiteSpace=wrap;html=1;" vertex="1" parent="LNgfw14nGwIQjow6nMsd-9">
          <mxGeometry y="30" width="140" height="30" as="geometry" />
        </mxCell>
        <mxCell id="LNgfw14nGwIQjow6nMsd-13" value="cst_id" style="text;strokeColor=none;fillColor=none;align=left;verticalAlign=middle;spacingLeft=4;spacingRight=4;overflow=hidden;points=[[0,0.5],[1,0.5]];portConstraint=eastwest;rotatable=0;whiteSpace=wrap;html=1;" vertex="1" parent="LNgfw14nGwIQjow6nMsd-9">
          <mxGeometry y="60" width="140" height="30" as="geometry" />
        </mxCell>
        <mxCell id="LNgfw14nGwIQjow6nMsd-120" value="&lt;font&gt;SALES&lt;/font&gt;" style="text;html=1;strokeColor=light-dark(#C73500,#4D9900);fillColor=light-dark(#FA6800, #4f7a28);align=center;verticalAlign=middle;whiteSpace=wrap;overflow=hidden;fontSize=12;fontStyle=1;fontColor=#000000;" vertex="1" parent="LNgfw14nGwIQjow6nMsd-9">
          <mxGeometry y="90" width="140" height="20" as="geometry" />
        </mxCell>
        <mxCell id="LNgfw14nGwIQjow6nMsd-11" value="Transactional Records about Sales &amp;amp; Orders" style="text;html=1;whiteSpace=wrap;strokeColor=none;fillColor=none;align=center;verticalAlign=middle;rounded=0;" vertex="1" parent="1">
          <mxGeometry x="255" y="330" width="130" height="30" as="geometry" />
        </mxCell>
        <mxCell id="LNgfw14nGwIQjow6nMsd-16" style="edgeStyle=orthogonalEdgeStyle;rounded=0;orthogonalLoop=1;jettySize=auto;html=1;entryX=0;entryY=0.5;entryDx=0;entryDy=0;" edge="1" parent="1" source="LNgfw14nGwIQjow6nMsd-13" target="LNgfw14nGwIQjow6nMsd-2">
          <mxGeometry relative="1" as="geometry" />
        </mxCell>
        <mxCell id="LNgfw14nGwIQjow6nMsd-17" style="edgeStyle=orthogonalEdgeStyle;rounded=0;orthogonalLoop=1;jettySize=auto;html=1;entryX=0;entryY=0.5;entryDx=0;entryDy=0;" edge="1" parent="1" source="LNgfw14nGwIQjow6nMsd-10" target="LNgfw14nGwIQjow6nMsd-7">
          <mxGeometry relative="1" as="geometry" />
        </mxCell>
        <mxCell id="LNgfw14nGwIQjow6nMsd-18" value="erp_cust_az12" style="swimlane;fontStyle=0;childLayout=stackLayout;horizontal=1;startSize=30;horizontalStack=0;resizeParent=1;resizeParentMax=0;resizeLast=0;collapsible=1;marginBottom=0;whiteSpace=wrap;html=1;rounded=1;fillColor=#6a00ff;fontColor=#ffffff;strokeColor=#3700CC;glass=0;" vertex="1" parent="1">
          <mxGeometry x="870" y="480" width="140" height="80" as="geometry" />
        </mxCell>
        <mxCell id="LNgfw14nGwIQjow6nMsd-19" value="cid" style="text;strokeColor=none;fillColor=none;align=left;verticalAlign=middle;spacingLeft=4;spacingRight=4;overflow=hidden;points=[[0,0.5],[1,0.5]];portConstraint=eastwest;rotatable=0;whiteSpace=wrap;html=1;" vertex="1" parent="LNgfw14nGwIQjow6nMsd-18">
          <mxGeometry y="30" width="140" height="30" as="geometry" />
        </mxCell>
        <mxCell id="LNgfw14nGwIQjow6nMsd-117" value="&lt;font&gt;CUSTOMER&lt;/font&gt;" style="text;html=1;strokeColor=#C73500;fillColor=light-dark(#FA6800,#FF6666);align=center;verticalAlign=middle;whiteSpace=wrap;overflow=hidden;fontSize=12;fontStyle=1;fontColor=#000000;" vertex="1" parent="LNgfw14nGwIQjow6nMsd-18">
          <mxGeometry y="60" width="140" height="20" as="geometry" />
        </mxCell>
        <mxCell id="LNgfw14nGwIQjow6nMsd-20" value="Extra Customer Information (bdate)" style="text;html=1;whiteSpace=wrap;strokeColor=none;fillColor=none;align=center;verticalAlign=middle;rounded=0;" vertex="1" parent="1">
          <mxGeometry x="875" y="440" width="130" height="30" as="geometry" />
        </mxCell>
        <mxCell id="LNgfw14nGwIQjow6nMsd-22" style="edgeStyle=orthogonalEdgeStyle;rounded=0;orthogonalLoop=1;jettySize=auto;html=1;entryX=1;entryY=0.5;entryDx=0;entryDy=0;" edge="1" parent="1" source="LNgfw14nGwIQjow6nMsd-19" target="LNgfw14nGwIQjow6nMsd-21">
          <mxGeometry relative="1" as="geometry" />
        </mxCell>
        <mxCell id="LNgfw14nGwIQjow6nMsd-23" value="erp_loc_a101" style="swimlane;fontStyle=0;childLayout=stackLayout;horizontal=1;startSize=30;horizontalStack=0;resizeParent=1;resizeParentMax=0;resizeLast=0;collapsible=1;marginBottom=0;whiteSpace=wrap;html=1;rounded=1;fillColor=#6a00ff;fontColor=#ffffff;strokeColor=#3700CC;glass=0;" vertex="1" parent="1">
          <mxGeometry x="870" y="620" width="140" height="80" as="geometry" />
        </mxCell>
        <mxCell id="LNgfw14nGwIQjow6nMsd-24" value="cid" style="text;strokeColor=none;fillColor=none;align=left;verticalAlign=middle;spacingLeft=4;spacingRight=4;overflow=hidden;points=[[0,0.5],[1,0.5]];portConstraint=eastwest;rotatable=0;whiteSpace=wrap;html=1;" vertex="1" parent="LNgfw14nGwIQjow6nMsd-23">
          <mxGeometry y="30" width="140" height="30" as="geometry" />
        </mxCell>
        <mxCell id="LNgfw14nGwIQjow6nMsd-119" value="&lt;font&gt;CUSTOMER&lt;/font&gt;" style="text;html=1;strokeColor=#C73500;fillColor=light-dark(#FA6800,#FF6666);align=center;verticalAlign=middle;whiteSpace=wrap;overflow=hidden;fontSize=12;fontStyle=1;fontColor=#000000;" vertex="1" parent="LNgfw14nGwIQjow6nMsd-23">
          <mxGeometry y="60" width="140" height="20" as="geometry" />
        </mxCell>
        <mxCell id="LNgfw14nGwIQjow6nMsd-25" value="Location of Customers(Country)" style="text;html=1;whiteSpace=wrap;strokeColor=none;fillColor=none;align=center;verticalAlign=middle;rounded=0;" vertex="1" parent="1">
          <mxGeometry x="875" y="580" width="130" height="30" as="geometry" />
        </mxCell>
        <mxCell id="LNgfw14nGwIQjow6nMsd-26" style="edgeStyle=orthogonalEdgeStyle;rounded=0;orthogonalLoop=1;jettySize=auto;html=1;entryX=1;entryY=0.5;entryDx=0;entryDy=0;" edge="1" parent="1" source="LNgfw14nGwIQjow6nMsd-24" target="LNgfw14nGwIQjow6nMsd-21">
          <mxGeometry relative="1" as="geometry" />
        </mxCell>
        <mxCell id="LNgfw14nGwIQjow6nMsd-27" value="erp_px_cat_g1v2" style="swimlane;fontStyle=0;childLayout=stackLayout;horizontal=1;startSize=30;horizontalStack=0;resizeParent=1;resizeParentMax=0;resizeLast=0;collapsible=1;marginBottom=0;whiteSpace=wrap;html=1;rounded=1;fillColor=#6a00ff;fontColor=#ffffff;strokeColor=#3700CC;glass=0;" vertex="1" parent="1">
          <mxGeometry x="870" y="260" width="140" height="80" as="geometry" />
        </mxCell>
        <mxCell id="LNgfw14nGwIQjow6nMsd-28" value="id" style="text;strokeColor=none;fillColor=none;align=left;verticalAlign=middle;spacingLeft=4;spacingRight=4;overflow=hidden;points=[[0,0.5],[1,0.5]];portConstraint=eastwest;rotatable=0;whiteSpace=wrap;html=1;" vertex="1" parent="LNgfw14nGwIQjow6nMsd-27">
          <mxGeometry y="30" width="140" height="30" as="geometry" />
        </mxCell>
        <mxCell id="LNgfw14nGwIQjow6nMsd-116" value="&lt;font&gt;PRODUCT&lt;/font&gt;" style="text;html=1;strokeColor=light-dark(#FA6800,#3333FF);fillColor=light-dark(#FA6800,#3333FF);align=center;verticalAlign=middle;whiteSpace=wrap;overflow=hidden;fontSize=12;fontStyle=1;fontColor=#000000;" vertex="1" parent="LNgfw14nGwIQjow6nMsd-27">
          <mxGeometry y="60" width="140" height="20" as="geometry" />
        </mxCell>
        <mxCell id="LNgfw14nGwIQjow6nMsd-29" value="Product Categories" style="text;html=1;whiteSpace=wrap;strokeColor=none;fillColor=none;align=center;verticalAlign=middle;rounded=0;" vertex="1" parent="1">
          <mxGeometry x="875" y="230" width="130" height="30" as="geometry" />
        </mxCell>
        <mxCell id="LNgfw14nGwIQjow6nMsd-31" style="edgeStyle=orthogonalEdgeStyle;rounded=0;orthogonalLoop=1;jettySize=auto;html=1;entryX=1;entryY=0.5;entryDx=0;entryDy=0;" edge="1" parent="1" source="LNgfw14nGwIQjow6nMsd-28" target="LNgfw14nGwIQjow6nMsd-7">
          <mxGeometry relative="1" as="geometry" />
        </mxCell>
        <mxCell id="LNgfw14nGwIQjow6nMsd-32" value="" style="rounded=1;whiteSpace=wrap;html=1;fillColor=none;dashed=1;" vertex="1" parent="1">
          <mxGeometry x="180" y="230" width="520" height="400" as="geometry" />
        </mxCell>
        <mxCell id="LNgfw14nGwIQjow6nMsd-33" value="CRM" style="rounded=1;whiteSpace=wrap;html=1;fillColor=#0050ef;fontColor=#ffffff;strokeColor=#001DBC;" vertex="1" parent="1">
          <mxGeometry x="380" y="200" width="120" height="60" as="geometry" />
        </mxCell>
        <mxCell id="LNgfw14nGwIQjow6nMsd-34" value="" style="rounded=1;whiteSpace=wrap;html=1;fillColor=none;dashed=1;" vertex="1" parent="1">
          <mxGeometry x="790" y="175" width="300" height="560" as="geometry" />
        </mxCell>
        <mxCell id="LNgfw14nGwIQjow6nMsd-35" value="ERP" style="rounded=1;whiteSpace=wrap;html=1;fillColor=#6a00ff;fontColor=#ffffff;strokeColor=#3700CC;" vertex="1" parent="1">
          <mxGeometry x="880" y="140" width="120" height="60" as="geometry" />
        </mxCell>
        <mxCell id="LNgfw14nGwIQjow6nMsd-36" value="" style="rounded=0;whiteSpace=wrap;html=1;dashed=1;gradientColor=none;glass=1;fillColor=none;" vertex="1" parent="1">
          <mxGeometry x="340" y="880" width="120" height="380" as="geometry" />
        </mxCell>
        <mxCell id="LNgfw14nGwIQjow6nMsd-37" value="Sources" style="text;html=1;align=center;verticalAlign=middle;resizable=0;points=[];autosize=1;strokeColor=none;fillColor=none;" vertex="1" parent="1">
          <mxGeometry x="365" y="850" width="70" height="30" as="geometry" />
        </mxCell>
        <mxCell id="LNgfw14nGwIQjow6nMsd-38" value="" style="rounded=0;whiteSpace=wrap;html=1;dashed=1;gradientColor=none;glass=1;fillColor=none;" vertex="1" parent="1">
          <mxGeometry x="510" y="880" width="420" height="380" as="geometry" />
        </mxCell>
        <mxCell id="LNgfw14nGwIQjow6nMsd-39" style="edgeStyle=orthogonalEdgeStyle;rounded=0;orthogonalLoop=1;jettySize=auto;html=1;exitX=0.5;exitY=1;exitDx=0;exitDy=0;" edge="1" parent="1" source="LNgfw14nGwIQjow6nMsd-36" target="LNgfw14nGwIQjow6nMsd-36">
          <mxGeometry relative="1" as="geometry" />
        </mxCell>
        <mxCell id="LNgfw14nGwIQjow6nMsd-40" value="" style="rounded=0;whiteSpace=wrap;html=1;dashed=1;gradientColor=none;glass=1;fillColor=none;" vertex="1" parent="1">
          <mxGeometry x="980" y="880" width="120" height="380" as="geometry" />
        </mxCell>
        <mxCell id="LNgfw14nGwIQjow6nMsd-41" value="Data Warehouse" style="text;html=1;align=center;verticalAlign=middle;resizable=0;points=[];autosize=1;strokeColor=none;fillColor=none;" vertex="1" parent="1">
          <mxGeometry x="665" y="850" width="110" height="30" as="geometry" />
        </mxCell>
        <mxCell id="LNgfw14nGwIQjow6nMsd-42" value="Consume" style="text;html=1;align=center;verticalAlign=middle;resizable=0;points=[];autosize=1;strokeColor=none;fillColor=none;" vertex="1" parent="1">
          <mxGeometry x="1005" y="850" width="70" height="30" as="geometry" />
        </mxCell>
        <mxCell id="LNgfw14nGwIQjow6nMsd-43" value="Bronze layer" style="rounded=0;whiteSpace=wrap;html=1;fillColor=#fad7ac;strokeColor=#b46504;" vertex="1" parent="1">
          <mxGeometry x="540" y="910" width="100" height="20" as="geometry" />
        </mxCell>
        <mxCell id="LNgfw14nGwIQjow6nMsd-44" value="" style="rounded=0;whiteSpace=wrap;html=1;fillColor=none;strokeColor=#b46504;" vertex="1" parent="1">
          <mxGeometry x="540" y="940" width="100" height="310" as="geometry" />
        </mxCell>
        <mxCell id="LNgfw14nGwIQjow6nMsd-45" value="" style="rounded=0;whiteSpace=wrap;html=1;fillColor=none;strokeColor=#23445d;" vertex="1" parent="1">
          <mxGeometry x="670" y="940" width="100" height="310" as="geometry" />
        </mxCell>
        <mxCell id="LNgfw14nGwIQjow6nMsd-46" value="Silver layer" style="rounded=0;whiteSpace=wrap;html=1;fillColor=#bac8d3;strokeColor=#23445d;" vertex="1" parent="1">
          <mxGeometry x="670" y="910" width="100" height="20" as="geometry" />
        </mxCell>
        <mxCell id="LNgfw14nGwIQjow6nMsd-47" value="" style="rounded=0;whiteSpace=wrap;html=1;fillColor=none;strokeColor=light-dark(#D6B656,#FFD966);gradientColor=#ffd966;" vertex="1" parent="1">
          <mxGeometry x="800" y="940" width="100" height="310" as="geometry" />
        </mxCell>
        <mxCell id="LNgfw14nGwIQjow6nMsd-48" value="Gold layer" style="rounded=0;whiteSpace=wrap;html=1;fillColor=light-dark(#FFF2CC,#D29D00);strokeColor=#d6b656;gradientColor=#ffd966;" vertex="1" parent="1">
          <mxGeometry x="800" y="910" width="100" height="20" as="geometry" />
        </mxCell>
        <mxCell id="LNgfw14nGwIQjow6nMsd-49" value="CRM&lt;div&gt;&lt;br&gt;&lt;/div&gt;" style="image;aspect=fixed;html=1;points=[];align=center;fontSize=12;image=img/lib/azure2/general/Folder_Blank.svg;" vertex="1" parent="1">
          <mxGeometry x="376" y="950.8999999999999" width="50" height="40.59" as="geometry" />
        </mxCell>
        <mxCell id="LNgfw14nGwIQjow6nMsd-50" value="&lt;div&gt;ERP&lt;/div&gt;" style="image;aspect=fixed;html=1;points=[];align=center;fontSize=12;image=img/lib/azure2/general/Folder_Blank.svg;" vertex="1" parent="1">
          <mxGeometry x="376" y="1055" width="48" height="38.96" as="geometry" />
        </mxCell>
        <mxCell id="LNgfw14nGwIQjow6nMsd-51" value="&lt;font style=&quot;font-size: 7px;&quot;&gt;Raw Data&lt;/font&gt;" style="html=1;verticalLabelPosition=bottom;align=center;labelBackgroundColor=#ffffff;verticalAlign=top;strokeWidth=2;strokeColor=#d79b00;shadow=0;dashed=0;shape=mxgraph.ios7.icons.data;fillColor=#ffe6cc;" vertex="1" parent="1">
          <mxGeometry x="578" y="950.9" width="24" height="29.099999999999998" as="geometry" />
        </mxCell>
        <mxCell id="LNgfw14nGwIQjow6nMsd-52" value="" style="endArrow=none;html=1;rounded=0;" edge="1" parent="1">
          <mxGeometry relative="1" as="geometry">
            <mxPoint x="350" y="1150" as="sourcePoint" />
            <mxPoint x="450" y="1150" as="targetPoint" />
          </mxGeometry>
        </mxCell>
        <mxCell id="LNgfw14nGwIQjow6nMsd-53" value="&lt;font style=&quot;font-size: 9px;&quot;&gt;&lt;b&gt;Object Type: &lt;/b&gt;CSV Files&lt;/font&gt;" style="text;html=1;align=center;verticalAlign=middle;whiteSpace=wrap;rounded=0;" vertex="1" parent="1">
          <mxGeometry x="350" y="1170" width="100" height="30" as="geometry" />
        </mxCell>
        <mxCell id="LNgfw14nGwIQjow6nMsd-54" value="" style="image;aspect=fixed;html=1;points=[];align=center;fontSize=12;image=img/lib/azure2/general/File.svg;" vertex="1" parent="1">
          <mxGeometry x="419.77" y="971.8" width="16.23" height="20" as="geometry" />
        </mxCell>
        <mxCell id="LNgfw14nGwIQjow6nMsd-55" value="" style="image;aspect=fixed;html=1;points=[];align=center;fontSize=12;image=img/lib/azure2/general/File.svg;" vertex="1" parent="1">
          <mxGeometry x="418.77" y="1073.96" width="16.23" height="20" as="geometry" />
        </mxCell>
        <mxCell id="LNgfw14nGwIQjow6nMsd-56" value="&lt;font style=&quot;font-size: 9px;&quot;&gt;&lt;b&gt;Interface: &lt;/b&gt;Files in Folders&lt;/font&gt;" style="text;html=1;align=center;verticalAlign=middle;whiteSpace=wrap;rounded=0;" vertex="1" parent="1">
          <mxGeometry x="345" y="1200" width="110" height="30" as="geometry" />
        </mxCell>
        <mxCell id="LNgfw14nGwIQjow6nMsd-57" value="&lt;font style=&quot;font-size: 7px;&quot;&gt;Cleaned, Standardised Data&lt;/font&gt;" style="html=1;verticalLabelPosition=bottom;align=center;labelBackgroundColor=#ffffff;verticalAlign=top;strokeWidth=2;strokeColor=#23445d;shadow=0;dashed=0;shape=mxgraph.ios7.icons.data;fillColor=#bac8d3;" vertex="1" parent="1">
          <mxGeometry x="708" y="950.9" width="24" height="29.099999999999998" as="geometry" />
        </mxCell>
        <mxCell id="LNgfw14nGwIQjow6nMsd-58" value="&lt;font style=&quot;font-size: 7px;&quot;&gt;Business-Ready Data&lt;/font&gt;" style="html=1;verticalLabelPosition=bottom;align=center;labelBackgroundColor=#ffffff;verticalAlign=top;strokeWidth=2;strokeColor=light-dark(#D79B00,#D29D00);shadow=0;dashed=0;shape=mxgraph.ios7.icons.data;fillColor=#ffe6cc;" vertex="1" parent="1">
          <mxGeometry x="838" y="950.9" width="24" height="29.099999999999998" as="geometry" />
        </mxCell>
        <mxCell id="LNgfw14nGwIQjow6nMsd-59" value="" style="html=1;shadow=0;dashed=1;align=center;verticalAlign=middle;shape=mxgraph.arrows2.arrow;dy=0.64;dx=26.33;notch=0;fillColor=#dae8fc;strokeColor=#6c8ebf;gradientColor=#7ea6e0;perimeterSpacing=13;" vertex="1" parent="1">
          <mxGeometry x="645" y="1032.5" width="20" height="25" as="geometry" />
        </mxCell>
        <mxCell id="LNgfw14nGwIQjow6nMsd-60" value="" style="html=1;shadow=0;dashed=1;align=center;verticalAlign=middle;shape=mxgraph.arrows2.arrow;dy=0.64;dx=26.33;notch=0;fillColor=#dae8fc;strokeColor=#6c8ebf;gradientColor=#7ea6e0;" vertex="1" parent="1">
          <mxGeometry x="910" y="1030" width="60" height="30" as="geometry" />
        </mxCell>
        <mxCell id="LNgfw14nGwIQjow6nMsd-61" value="" style="html=1;shadow=0;dashed=1;align=center;verticalAlign=middle;shape=mxgraph.arrows2.arrow;dy=0.64;dx=26.33;notch=0;fillColor=#dae8fc;strokeColor=#6c8ebf;gradientColor=#7ea6e0;" vertex="1" parent="1">
          <mxGeometry x="455" y="1030" width="60" height="30" as="geometry" />
        </mxCell>
        <mxCell id="LNgfw14nGwIQjow6nMsd-62" value="" style="endArrow=none;html=1;rounded=0;" edge="1" parent="1">
          <mxGeometry relative="1" as="geometry">
            <mxPoint x="550" y="1010" as="sourcePoint" />
            <mxPoint x="630" y="1010" as="targetPoint" />
          </mxGeometry>
        </mxCell>
        <mxCell id="LNgfw14nGwIQjow6nMsd-63" value="" style="endArrow=none;html=1;rounded=0;" edge="1" parent="1">
          <mxGeometry relative="1" as="geometry">
            <mxPoint x="680" y="1010" as="sourcePoint" />
            <mxPoint x="760" y="1010" as="targetPoint" />
          </mxGeometry>
        </mxCell>
        <mxCell id="LNgfw14nGwIQjow6nMsd-64" value="" style="endArrow=none;html=1;rounded=0;" edge="1" parent="1">
          <mxGeometry relative="1" as="geometry">
            <mxPoint x="810" y="1010" as="sourcePoint" />
            <mxPoint x="890" y="1010" as="targetPoint" />
          </mxGeometry>
        </mxCell>
        <mxCell id="LNgfw14nGwIQjow6nMsd-65" value="" style="html=1;shadow=0;dashed=1;align=center;verticalAlign=middle;shape=mxgraph.arrows2.arrow;dy=0.64;dx=26.33;notch=0;fillColor=#dae8fc;strokeColor=#6c8ebf;gradientColor=#7ea6e0;perimeterSpacing=13;" vertex="1" parent="1">
          <mxGeometry x="775" y="1032.5" width="20" height="25" as="geometry" />
        </mxCell>
        <mxCell id="LNgfw14nGwIQjow6nMsd-66" value="&lt;font style=&quot;font-size: 8px;&quot;&gt;&lt;b&gt;Object Type: &lt;/b&gt;Tables&lt;/font&gt;" style="text;html=1;align=center;verticalAlign=middle;whiteSpace=wrap;rounded=0;" vertex="1" parent="1">
          <mxGeometry x="540" y="1030" width="100" height="30" as="geometry" />
        </mxCell>
        <mxCell id="LNgfw14nGwIQjow6nMsd-67" value="&lt;font style=&quot;font-size: 8px;&quot;&gt;&lt;b&gt;Object Type: &lt;/b&gt;Tables&lt;/font&gt;" style="text;html=1;align=center;verticalAlign=middle;whiteSpace=wrap;rounded=0;" vertex="1" parent="1">
          <mxGeometry x="800" y="1030" width="100" height="30" as="geometry" />
        </mxCell>
        <mxCell id="LNgfw14nGwIQjow6nMsd-68" value="&lt;font style=&quot;font-size: 8px;&quot;&gt;&lt;b&gt;Object Type: &lt;/b&gt;Tables&lt;/font&gt;" style="text;html=1;align=center;verticalAlign=middle;whiteSpace=wrap;rounded=0;" vertex="1" parent="1">
          <mxGeometry x="670" y="1027.5" width="100" height="30" as="geometry" />
        </mxCell>
        <mxCell id="LNgfw14nGwIQjow6nMsd-69" value="&lt;b&gt;&lt;font style=&quot;font-size: 8px;&quot;&gt;Load:&lt;/font&gt;&lt;/b&gt;" style="text;html=1;align=left;verticalAlign=middle;whiteSpace=wrap;rounded=0;" vertex="1" parent="1">
          <mxGeometry x="550" y="1057.5" width="60" height="30" as="geometry" />
        </mxCell>
        <mxCell id="LNgfw14nGwIQjow6nMsd-70" value="&lt;font style=&quot;font-size: 8px;&quot;&gt;Batch Processing&lt;/font&gt;&lt;div&gt;&lt;font style=&quot;font-size: 8px;&quot;&gt;Full Load&lt;/font&gt;&lt;/div&gt;&lt;div&gt;&lt;font style=&quot;font-size: 8px;&quot;&gt;Truncate &amp;amp; Instert&lt;/font&gt;&lt;/div&gt;" style="text;html=1;align=center;verticalAlign=middle;whiteSpace=wrap;rounded=0;" vertex="1" parent="1">
          <mxGeometry x="550" y="1093.96" width="80" height="30" as="geometry" />
        </mxCell>
        <mxCell id="LNgfw14nGwIQjow6nMsd-71" value="&lt;b&gt;&lt;font style=&quot;font-size: 8px;&quot;&gt;Load:&lt;/font&gt;&lt;/b&gt;" style="text;html=1;align=left;verticalAlign=middle;whiteSpace=wrap;rounded=0;" vertex="1" parent="1">
          <mxGeometry x="680" y="1057.5" width="60" height="30" as="geometry" />
        </mxCell>
        <mxCell id="LNgfw14nGwIQjow6nMsd-72" value="&lt;font style=&quot;font-size: 8px;&quot;&gt;Batch Processing&lt;/font&gt;&lt;div&gt;&lt;font style=&quot;font-size: 8px;&quot;&gt;Full Load&lt;/font&gt;&lt;/div&gt;&lt;div&gt;&lt;font style=&quot;font-size: 8px;&quot;&gt;Truncate &amp;amp; Instert&lt;/font&gt;&lt;/div&gt;" style="text;html=1;align=center;verticalAlign=middle;whiteSpace=wrap;rounded=0;" vertex="1" parent="1">
          <mxGeometry x="680" y="1093.96" width="80" height="30" as="geometry" />
        </mxCell>
        <mxCell id="LNgfw14nGwIQjow6nMsd-73" value="&lt;b&gt;&lt;font style=&quot;font-size: 8px;&quot;&gt;NO Load:&lt;/font&gt;&lt;/b&gt;" style="text;html=1;align=left;verticalAlign=middle;whiteSpace=wrap;rounded=0;" vertex="1" parent="1">
          <mxGeometry x="810" y="1059.48" width="60" height="30" as="geometry" />
        </mxCell>
        <mxCell id="LNgfw14nGwIQjow6nMsd-74" value="&lt;font style=&quot;font-size: 8px;&quot;&gt;&lt;b&gt;No Transformations&lt;/b&gt;&lt;/font&gt;" style="text;html=1;align=center;verticalAlign=middle;whiteSpace=wrap;rounded=0;" vertex="1" parent="1">
          <mxGeometry x="540" y="1130" width="100" height="30" as="geometry" />
        </mxCell>
        <mxCell id="LNgfw14nGwIQjow6nMsd-75" value="&lt;font style=&quot;font-size: 8px;&quot;&gt;&lt;b&gt;Transformations:&lt;/b&gt;&lt;/font&gt;" style="text;html=1;align=left;verticalAlign=middle;whiteSpace=wrap;rounded=0;" vertex="1" parent="1">
          <mxGeometry x="680" y="1130" width="100" height="30" as="geometry" />
        </mxCell>
        <mxCell id="LNgfw14nGwIQjow6nMsd-76" value="&lt;font style=&quot;font-size: 8px;&quot;&gt;&lt;b&gt;Data Model: &lt;/b&gt;None (as-is)&lt;/font&gt;" style="text;html=1;align=center;verticalAlign=middle;whiteSpace=wrap;rounded=0;" vertex="1" parent="1">
          <mxGeometry x="540" y="1160" width="100" height="30" as="geometry" />
        </mxCell>
        <mxCell id="LNgfw14nGwIQjow6nMsd-77" value="&lt;font style=&quot;font-size: 8px;&quot;&gt;&lt;b&gt;Data Model: &lt;/b&gt;None (as-is)&lt;/font&gt;" style="text;html=1;align=center;verticalAlign=middle;whiteSpace=wrap;rounded=0;" vertex="1" parent="1">
          <mxGeometry x="670" y="1220" width="100" height="30" as="geometry" />
        </mxCell>
        <mxCell id="LNgfw14nGwIQjow6nMsd-78" value="&lt;font style=&quot;font-size: 6px;&quot;&gt;Data Cleansing&lt;/font&gt;&lt;div&gt;&lt;font style=&quot;font-size: 6px;&quot;&gt;Data Standardisation&lt;/font&gt;&lt;/div&gt;&lt;div&gt;&lt;font style=&quot;font-size: 6px;&quot;&gt;Data Normalization&lt;/font&gt;&lt;/div&gt;&lt;div&gt;&lt;font style=&quot;font-size: 6px;&quot;&gt;Derived Columns&lt;/font&gt;&lt;/div&gt;&lt;div&gt;&lt;font style=&quot;font-size: 6px;&quot;&gt;Data Enrichment&lt;/font&gt;&lt;/div&gt;" style="text;html=1;align=center;verticalAlign=middle;whiteSpace=wrap;rounded=0;" vertex="1" parent="1">
          <mxGeometry x="690" y="1170" width="60" height="30" as="geometry" />
        </mxCell>
        <mxCell id="LNgfw14nGwIQjow6nMsd-79" value="&lt;font style=&quot;font-size: 8px;&quot;&gt;Data Integrations&lt;/font&gt;&lt;div&gt;&lt;font style=&quot;font-size: 8px;&quot;&gt;Agregations&lt;/font&gt;&lt;/div&gt;&lt;div&gt;&lt;font style=&quot;font-size: 8px;&quot;&gt;Business Logics&lt;/font&gt;&lt;/div&gt;" style="text;html=1;align=center;verticalAlign=middle;whiteSpace=wrap;rounded=0;" vertex="1" parent="1">
          <mxGeometry x="820" y="1100" width="60" height="30" as="geometry" />
        </mxCell>
        <mxCell id="LNgfw14nGwIQjow6nMsd-80" value="&lt;b&gt;&lt;font style=&quot;font-size: 8px;&quot;&gt;Data Model:&lt;/font&gt;&lt;/b&gt;" style="text;html=1;align=center;verticalAlign=middle;whiteSpace=wrap;rounded=0;" vertex="1" parent="1">
          <mxGeometry x="802" y="1150" width="60" height="30" as="geometry" />
        </mxCell>
        <mxCell id="LNgfw14nGwIQjow6nMsd-81" value="&lt;font style=&quot;font-size: 8px;&quot;&gt;Star Schema&lt;/font&gt;&lt;div&gt;&lt;font style=&quot;font-size: 8px;&quot;&gt;Flat Table&lt;/font&gt;&lt;/div&gt;&lt;div&gt;&lt;font style=&quot;font-size: 8px;&quot;&gt;Aggregated Table&lt;/font&gt;&lt;/div&gt;" style="text;html=1;align=center;verticalAlign=middle;whiteSpace=wrap;rounded=0;" vertex="1" parent="1">
          <mxGeometry x="820" y="1190" width="60" height="30" as="geometry" />
        </mxCell>
        <mxCell id="LNgfw14nGwIQjow6nMsd-82" value="&lt;font style=&quot;font-size: 8px;&quot;&gt;Bi &amp;amp; Reporting&lt;/font&gt;" style="image;aspect=fixed;html=1;points=[];align=center;fontSize=12;image=img/lib/azure2/analytics/Power_BI_Embedded.svg;" vertex="1" parent="1">
          <mxGeometry x="1024.5" y="930" width="31" height="41.33" as="geometry" />
        </mxCell>
        <mxCell id="LNgfw14nGwIQjow6nMsd-83" value="&lt;font style=&quot;font-size: 8px;&quot;&gt;Ad-Hoc&lt;/font&gt;&lt;div&gt;&lt;font style=&quot;font-size: 8px;&quot;&gt;SQL Queries&lt;/font&gt;&lt;/div&gt;" style="sketch=0;outlineConnect=0;fontColor=#232F3E;gradientColor=none;fillColor=#8C4FFF;strokeColor=none;dashed=0;verticalLabelPosition=bottom;verticalAlign=top;align=center;html=1;fontSize=12;fontStyle=0;aspect=fixed;pointerEvents=1;shape=mxgraph.aws4.aws_glue_data_quality;" vertex="1" parent="1">
          <mxGeometry x="1024.5" y="1026" width="34" height="34" as="geometry" />
        </mxCell>
        <mxCell id="LNgfw14nGwIQjow6nMsd-84" value="&lt;font style=&quot;font-size: 8px;&quot;&gt;Machine Learning&lt;/font&gt;" style="sketch=0;points=[[0,0,0],[0.25,0,0],[0.5,0,0],[0.75,0,0],[1,0,0],[0,1,0],[0.25,1,0],[0.5,1,0],[0.75,1,0],[1,1,0],[0,0.25,0],[0,0.5,0],[0,0.75,0],[1,0.25,0],[1,0.5,0],[1,0.75,0]];outlineConnect=0;fontColor=#232F3E;fillColor=#01A88D;strokeColor=#ffffff;dashed=0;verticalLabelPosition=bottom;verticalAlign=top;align=center;html=1;fontSize=12;fontStyle=0;aspect=fixed;shape=mxgraph.aws4.resourceIcon;resIcon=mxgraph.aws4.deep_learning_amis;" vertex="1" parent="1">
          <mxGeometry x="1020.5" y="1130" width="39" height="39" as="geometry" />
        </mxCell>
        <mxCell id="LNgfw14nGwIQjow6nMsd-85" value="" style="rounded=0;whiteSpace=wrap;html=1;dashed=1;gradientColor=none;glass=1;fillColor=none;" vertex="1" parent="1">
          <mxGeometry x="340" y="1375" width="120" height="380" as="geometry" />
        </mxCell>
        <mxCell id="LNgfw14nGwIQjow6nMsd-86" value="Sources" style="text;html=1;align=center;verticalAlign=middle;resizable=0;points=[];autosize=1;strokeColor=none;fillColor=none;" vertex="1" parent="1">
          <mxGeometry x="365" y="1345" width="70" height="30" as="geometry" />
        </mxCell>
        <mxCell id="LNgfw14nGwIQjow6nMsd-87" style="edgeStyle=orthogonalEdgeStyle;rounded=0;orthogonalLoop=1;jettySize=auto;html=1;entryX=0;entryY=0.5;entryDx=0;entryDy=0;" edge="1" parent="1" source="LNgfw14nGwIQjow6nMsd-90" target="LNgfw14nGwIQjow6nMsd-105">
          <mxGeometry relative="1" as="geometry" />
        </mxCell>
        <mxCell id="LNgfw14nGwIQjow6nMsd-88" style="edgeStyle=orthogonalEdgeStyle;rounded=0;orthogonalLoop=1;jettySize=auto;html=1;entryX=0;entryY=0.5;entryDx=0;entryDy=0;" edge="1" parent="1" source="LNgfw14nGwIQjow6nMsd-90" target="LNgfw14nGwIQjow6nMsd-104">
          <mxGeometry relative="1" as="geometry" />
        </mxCell>
        <mxCell id="LNgfw14nGwIQjow6nMsd-89" style="edgeStyle=orthogonalEdgeStyle;rounded=0;orthogonalLoop=1;jettySize=auto;html=1;entryX=0;entryY=0.5;entryDx=0;entryDy=0;" edge="1" parent="1" source="LNgfw14nGwIQjow6nMsd-90" target="LNgfw14nGwIQjow6nMsd-106">
          <mxGeometry relative="1" as="geometry" />
        </mxCell>
        <mxCell id="LNgfw14nGwIQjow6nMsd-90" value="CRM&lt;div&gt;&lt;br&gt;&lt;/div&gt;" style="image;aspect=fixed;html=1;points=[];align=center;fontSize=12;image=img/lib/azure2/general/Folder_Blank.svg;" vertex="1" parent="1">
          <mxGeometry x="376" y="1470" width="50" height="40.59" as="geometry" />
        </mxCell>
        <mxCell id="LNgfw14nGwIQjow6nMsd-91" style="edgeStyle=orthogonalEdgeStyle;rounded=0;orthogonalLoop=1;jettySize=auto;html=1;entryX=0;entryY=0.5;entryDx=0;entryDy=0;" edge="1" parent="1" source="LNgfw14nGwIQjow6nMsd-94" target="LNgfw14nGwIQjow6nMsd-107">
          <mxGeometry relative="1" as="geometry" />
        </mxCell>
        <mxCell id="LNgfw14nGwIQjow6nMsd-92" style="edgeStyle=orthogonalEdgeStyle;rounded=0;orthogonalLoop=1;jettySize=auto;html=1;" edge="1" parent="1" source="LNgfw14nGwIQjow6nMsd-94" target="LNgfw14nGwIQjow6nMsd-108">
          <mxGeometry relative="1" as="geometry" />
        </mxCell>
        <mxCell id="LNgfw14nGwIQjow6nMsd-93" style="edgeStyle=orthogonalEdgeStyle;rounded=0;orthogonalLoop=1;jettySize=auto;html=1;entryX=0;entryY=0.5;entryDx=0;entryDy=0;" edge="1" parent="1" source="LNgfw14nGwIQjow6nMsd-94" target="LNgfw14nGwIQjow6nMsd-109">
          <mxGeometry relative="1" as="geometry" />
        </mxCell>
        <mxCell id="LNgfw14nGwIQjow6nMsd-94" value="&lt;div&gt;ERP&lt;/div&gt;" style="image;aspect=fixed;html=1;points=[];align=center;fontSize=12;image=img/lib/azure2/general/Folder_Blank.svg;" vertex="1" parent="1">
          <mxGeometry x="376" y="1622.8899999999999" width="48" height="38.96" as="geometry" />
        </mxCell>
        <mxCell id="LNgfw14nGwIQjow6nMsd-95" value="" style="rounded=1;whiteSpace=wrap;html=1;rotation=90;fillColor=none;strokeColor=light-dark(#000000,#4B2D08);" vertex="1" parent="1">
          <mxGeometry x="399" y="1505.25" width="341" height="119.5" as="geometry" />
        </mxCell>
        <mxCell id="LNgfw14nGwIQjow6nMsd-96" value="" style="rounded=1;whiteSpace=wrap;html=1;rotation=90;fillColor=none;" vertex="1" parent="1">
          <mxGeometry x="578" y="1505.25" width="341" height="119.5" as="geometry" />
        </mxCell>
        <mxCell id="LNgfw14nGwIQjow6nMsd-97" value="" style="rounded=1;whiteSpace=wrap;html=1;rotation=90;fillColor=none;fontColor=#000000;strokeColor=#B09500;" vertex="1" parent="1">
          <mxGeometry x="759" y="1505.25" width="341" height="119.5" as="geometry" />
        </mxCell>
        <mxCell id="LNgfw14nGwIQjow6nMsd-98" value="" style="rounded=1;whiteSpace=wrap;html=1;rotation=90;fillColor=none;strokeColor=light-dark(#000000,#4B2D08);" vertex="1" parent="1">
          <mxGeometry x="554" y="1313.25" width="31" height="119.5" as="geometry" />
        </mxCell>
        <mxCell id="LNgfw14nGwIQjow6nMsd-99" value="" style="rounded=1;whiteSpace=wrap;html=1;rotation=90;fillColor=none;" vertex="1" parent="1">
          <mxGeometry x="733" y="1313.25" width="31" height="119.5" as="geometry" />
        </mxCell>
        <mxCell id="LNgfw14nGwIQjow6nMsd-100" value="" style="rounded=1;whiteSpace=wrap;html=1;rotation=90;fillColor=none;fontColor=#000000;strokeColor=#B09500;" vertex="1" parent="1">
          <mxGeometry x="914" y="1313.25" width="31" height="119.5" as="geometry" />
        </mxCell>
        <mxCell id="LNgfw14nGwIQjow6nMsd-101" value="Bronze Layer" style="text;html=1;align=center;verticalAlign=middle;whiteSpace=wrap;rounded=0;fillColor=none;strokeColor=none;" vertex="1" parent="1">
          <mxGeometry x="509.5" y="1358" width="120" height="30" as="geometry" />
        </mxCell>
        <mxCell id="LNgfw14nGwIQjow6nMsd-102" value="Silver Layer" style="text;html=1;align=center;verticalAlign=middle;whiteSpace=wrap;rounded=0;" vertex="1" parent="1">
          <mxGeometry x="688.5" y="1358" width="120" height="30" as="geometry" />
        </mxCell>
        <mxCell id="LNgfw14nGwIQjow6nMsd-103" value="Gold Layer" style="text;html=1;align=center;verticalAlign=middle;whiteSpace=wrap;rounded=0;fillColor=none;fontColor=#000000;strokeColor=#B09500;" vertex="1" parent="1">
          <mxGeometry x="869.5" y="1358" width="120" height="30" as="geometry" />
        </mxCell>
        <mxCell id="LNgfw14nGwIQjow6nMsd-240" style="edgeStyle=orthogonalEdgeStyle;rounded=0;orthogonalLoop=1;jettySize=auto;html=1;exitX=1;exitY=0.5;exitDx=0;exitDy=0;entryX=0;entryY=0.5;entryDx=0;entryDy=0;" edge="1" parent="1" source="LNgfw14nGwIQjow6nMsd-104" target="LNgfw14nGwIQjow6nMsd-234">
          <mxGeometry relative="1" as="geometry" />
        </mxCell>
        <mxCell id="LNgfw14nGwIQjow6nMsd-104" value="&lt;font style=&quot;font-size: 10px;&quot;&gt;crm_sales_details&lt;/font&gt;" style="rounded=1;whiteSpace=wrap;html=1;fillColor=none;strokeColor=light-dark(#000000,#4B2D08);" vertex="1" parent="1">
          <mxGeometry x="524.5" y="1445.25" width="90" height="24.75" as="geometry" />
        </mxCell>
        <mxCell id="LNgfw14nGwIQjow6nMsd-241" style="edgeStyle=orthogonalEdgeStyle;rounded=0;orthogonalLoop=1;jettySize=auto;html=1;exitX=1;exitY=0.5;exitDx=0;exitDy=0;" edge="1" parent="1" source="LNgfw14nGwIQjow6nMsd-105" target="LNgfw14nGwIQjow6nMsd-235">
          <mxGeometry relative="1" as="geometry" />
        </mxCell>
        <mxCell id="LNgfw14nGwIQjow6nMsd-105" value="&lt;font style=&quot;font-size: 10px;&quot;&gt;crm_cust_info&lt;/font&gt;" style="rounded=1;whiteSpace=wrap;html=1;fillColor=none;strokeColor=light-dark(#000000,#4B2D08);" vertex="1" parent="1">
          <mxGeometry x="524.5" y="1477.92" width="90" height="24.75" as="geometry" />
        </mxCell>
        <mxCell id="LNgfw14nGwIQjow6nMsd-242" style="edgeStyle=orthogonalEdgeStyle;rounded=0;orthogonalLoop=1;jettySize=auto;html=1;exitX=1;exitY=0.5;exitDx=0;exitDy=0;" edge="1" parent="1" source="LNgfw14nGwIQjow6nMsd-106" target="LNgfw14nGwIQjow6nMsd-236">
          <mxGeometry relative="1" as="geometry" />
        </mxCell>
        <mxCell id="LNgfw14nGwIQjow6nMsd-106" value="&lt;font style=&quot;font-size: 10px;&quot;&gt;crm_prd_info&lt;/font&gt;" style="rounded=1;whiteSpace=wrap;html=1;fillColor=none;strokeColor=light-dark(#000000,#4B2D08);" vertex="1" parent="1">
          <mxGeometry x="525" y="1510.59" width="90" height="24.75" as="geometry" />
        </mxCell>
        <mxCell id="LNgfw14nGwIQjow6nMsd-243" style="edgeStyle=orthogonalEdgeStyle;rounded=0;orthogonalLoop=1;jettySize=auto;html=1;exitX=1;exitY=0.5;exitDx=0;exitDy=0;" edge="1" parent="1" source="LNgfw14nGwIQjow6nMsd-107" target="LNgfw14nGwIQjow6nMsd-237">
          <mxGeometry relative="1" as="geometry" />
        </mxCell>
        <mxCell id="LNgfw14nGwIQjow6nMsd-107" value="&lt;font style=&quot;font-size: 10px;&quot;&gt;erp_cust_az12&lt;/font&gt;" style="rounded=1;whiteSpace=wrap;html=1;fillColor=none;strokeColor=light-dark(#000000,#4B2D08);" vertex="1" parent="1">
          <mxGeometry x="525" y="1600" width="90" height="24.75" as="geometry" />
        </mxCell>
        <mxCell id="LNgfw14nGwIQjow6nMsd-244" style="edgeStyle=orthogonalEdgeStyle;rounded=0;orthogonalLoop=1;jettySize=auto;html=1;exitX=1;exitY=0.5;exitDx=0;exitDy=0;entryX=0;entryY=0.5;entryDx=0;entryDy=0;" edge="1" parent="1" source="LNgfw14nGwIQjow6nMsd-108" target="LNgfw14nGwIQjow6nMsd-238">
          <mxGeometry relative="1" as="geometry" />
        </mxCell>
        <mxCell id="LNgfw14nGwIQjow6nMsd-108" value="&lt;font style=&quot;font-size: 10px;&quot;&gt;erp_loc_a101&lt;/font&gt;" style="rounded=1;whiteSpace=wrap;html=1;fillColor=none;strokeColor=light-dark(#000000,#4B2D08);" vertex="1" parent="1">
          <mxGeometry x="525" y="1630" width="90" height="24.75" as="geometry" />
        </mxCell>
        <mxCell id="LNgfw14nGwIQjow6nMsd-245" style="edgeStyle=orthogonalEdgeStyle;rounded=0;orthogonalLoop=1;jettySize=auto;html=1;entryX=0;entryY=0.5;entryDx=0;entryDy=0;" edge="1" parent="1" source="LNgfw14nGwIQjow6nMsd-109" target="LNgfw14nGwIQjow6nMsd-239">
          <mxGeometry relative="1" as="geometry" />
        </mxCell>
        <mxCell id="LNgfw14nGwIQjow6nMsd-109" value="&lt;font style=&quot;font-size: 10px;&quot;&gt;erp_px_cat_g1v2&lt;/font&gt;" style="rounded=1;whiteSpace=wrap;html=1;fillColor=none;strokeColor=light-dark(#000000,#4B2D08);" vertex="1" parent="1">
          <mxGeometry x="524.5" y="1660" width="90" height="24.75" as="geometry" />
        </mxCell>
        <mxCell id="LNgfw14nGwIQjow6nMsd-131" value="gold.dim_customer" style="shape=table;startSize=40;container=1;collapsible=1;childLayout=tableLayout;fixedRows=1;rowLines=0;fontStyle=1;align=center;resizeLast=1;html=1;fillColor=light-dark(#D79B00,#D29D00);" vertex="1" parent="1">
          <mxGeometry x="1320" y="295" width="180" height="340" as="geometry" />
        </mxCell>
        <mxCell id="LNgfw14nGwIQjow6nMsd-132" value="" style="shape=tableRow;horizontal=0;startSize=0;swimlaneHead=0;swimlaneBody=0;fillColor=none;collapsible=0;dropTarget=0;points=[[0,0.5],[1,0.5]];portConstraint=eastwest;top=0;left=0;right=0;bottom=1;" vertex="1" parent="LNgfw14nGwIQjow6nMsd-131">
          <mxGeometry y="40" width="180" height="30" as="geometry" />
        </mxCell>
        <mxCell id="LNgfw14nGwIQjow6nMsd-133" value="PK" style="shape=partialRectangle;connectable=0;fillColor=none;top=0;left=0;bottom=0;right=0;fontStyle=1;overflow=hidden;whiteSpace=wrap;html=1;" vertex="1" parent="LNgfw14nGwIQjow6nMsd-132">
          <mxGeometry width="30" height="30" as="geometry">
            <mxRectangle width="30" height="30" as="alternateBounds" />
          </mxGeometry>
        </mxCell>
        <mxCell id="LNgfw14nGwIQjow6nMsd-134" value="customer_key" style="shape=partialRectangle;connectable=0;fillColor=none;top=0;left=0;bottom=0;right=0;align=left;spacingLeft=6;fontStyle=5;overflow=hidden;whiteSpace=wrap;html=1;" vertex="1" parent="LNgfw14nGwIQjow6nMsd-132">
          <mxGeometry x="30" width="150" height="30" as="geometry">
            <mxRectangle width="150" height="30" as="alternateBounds" />
          </mxGeometry>
        </mxCell>
        <mxCell id="LNgfw14nGwIQjow6nMsd-135" value="" style="shape=tableRow;horizontal=0;startSize=0;swimlaneHead=0;swimlaneBody=0;fillColor=none;collapsible=0;dropTarget=0;points=[[0,0.5],[1,0.5]];portConstraint=eastwest;top=0;left=0;right=0;bottom=0;" vertex="1" parent="LNgfw14nGwIQjow6nMsd-131">
          <mxGeometry y="70" width="180" height="30" as="geometry" />
        </mxCell>
        <mxCell id="LNgfw14nGwIQjow6nMsd-136" value="" style="shape=partialRectangle;connectable=0;fillColor=none;top=0;left=0;bottom=0;right=0;editable=1;overflow=hidden;whiteSpace=wrap;html=1;" vertex="1" parent="LNgfw14nGwIQjow6nMsd-135">
          <mxGeometry width="30" height="30" as="geometry">
            <mxRectangle width="30" height="30" as="alternateBounds" />
          </mxGeometry>
        </mxCell>
        <mxCell id="LNgfw14nGwIQjow6nMsd-137" value="customer_id" style="shape=partialRectangle;connectable=0;fillColor=none;top=0;left=0;bottom=0;right=0;align=left;spacingLeft=6;overflow=hidden;whiteSpace=wrap;html=1;" vertex="1" parent="LNgfw14nGwIQjow6nMsd-135">
          <mxGeometry x="30" width="150" height="30" as="geometry">
            <mxRectangle width="150" height="30" as="alternateBounds" />
          </mxGeometry>
        </mxCell>
        <mxCell id="LNgfw14nGwIQjow6nMsd-138" value="" style="shape=tableRow;horizontal=0;startSize=0;swimlaneHead=0;swimlaneBody=0;fillColor=none;collapsible=0;dropTarget=0;points=[[0,0.5],[1,0.5]];portConstraint=eastwest;top=0;left=0;right=0;bottom=0;" vertex="1" parent="LNgfw14nGwIQjow6nMsd-131">
          <mxGeometry y="100" width="180" height="30" as="geometry" />
        </mxCell>
        <mxCell id="LNgfw14nGwIQjow6nMsd-139" value="" style="shape=partialRectangle;connectable=0;fillColor=none;top=0;left=0;bottom=0;right=0;editable=1;overflow=hidden;whiteSpace=wrap;html=1;" vertex="1" parent="LNgfw14nGwIQjow6nMsd-138">
          <mxGeometry width="30" height="30" as="geometry">
            <mxRectangle width="30" height="30" as="alternateBounds" />
          </mxGeometry>
        </mxCell>
        <mxCell id="LNgfw14nGwIQjow6nMsd-140" value="customer_number" style="shape=partialRectangle;connectable=0;fillColor=none;top=0;left=0;bottom=0;right=0;align=left;spacingLeft=6;overflow=hidden;whiteSpace=wrap;html=1;" vertex="1" parent="LNgfw14nGwIQjow6nMsd-138">
          <mxGeometry x="30" width="150" height="30" as="geometry">
            <mxRectangle width="150" height="30" as="alternateBounds" />
          </mxGeometry>
        </mxCell>
        <mxCell id="LNgfw14nGwIQjow6nMsd-141" value="" style="shape=tableRow;horizontal=0;startSize=0;swimlaneHead=0;swimlaneBody=0;fillColor=none;collapsible=0;dropTarget=0;points=[[0,0.5],[1,0.5]];portConstraint=eastwest;top=0;left=0;right=0;bottom=0;" vertex="1" parent="LNgfw14nGwIQjow6nMsd-131">
          <mxGeometry y="130" width="180" height="30" as="geometry" />
        </mxCell>
        <mxCell id="LNgfw14nGwIQjow6nMsd-142" value="" style="shape=partialRectangle;connectable=0;fillColor=none;top=0;left=0;bottom=0;right=0;editable=1;overflow=hidden;whiteSpace=wrap;html=1;" vertex="1" parent="LNgfw14nGwIQjow6nMsd-141">
          <mxGeometry width="30" height="30" as="geometry">
            <mxRectangle width="30" height="30" as="alternateBounds" />
          </mxGeometry>
        </mxCell>
        <mxCell id="LNgfw14nGwIQjow6nMsd-143" value="first_name" style="shape=partialRectangle;connectable=0;fillColor=none;top=0;left=0;bottom=0;right=0;align=left;spacingLeft=6;overflow=hidden;whiteSpace=wrap;html=1;" vertex="1" parent="LNgfw14nGwIQjow6nMsd-141">
          <mxGeometry x="30" width="150" height="30" as="geometry">
            <mxRectangle width="150" height="30" as="alternateBounds" />
          </mxGeometry>
        </mxCell>
        <mxCell id="LNgfw14nGwIQjow6nMsd-144" value="" style="shape=tableRow;horizontal=0;startSize=0;swimlaneHead=0;swimlaneBody=0;fillColor=none;collapsible=0;dropTarget=0;points=[[0,0.5],[1,0.5]];portConstraint=eastwest;top=0;left=0;right=0;bottom=0;" vertex="1" parent="LNgfw14nGwIQjow6nMsd-131">
          <mxGeometry y="160" width="180" height="30" as="geometry" />
        </mxCell>
        <mxCell id="LNgfw14nGwIQjow6nMsd-145" value="" style="shape=partialRectangle;connectable=0;fillColor=none;top=0;left=0;bottom=0;right=0;editable=1;overflow=hidden;whiteSpace=wrap;html=1;" vertex="1" parent="LNgfw14nGwIQjow6nMsd-144">
          <mxGeometry width="30" height="30" as="geometry">
            <mxRectangle width="30" height="30" as="alternateBounds" />
          </mxGeometry>
        </mxCell>
        <mxCell id="LNgfw14nGwIQjow6nMsd-146" value="last_name" style="shape=partialRectangle;connectable=0;fillColor=none;top=0;left=0;bottom=0;right=0;align=left;spacingLeft=6;overflow=hidden;whiteSpace=wrap;html=1;" vertex="1" parent="LNgfw14nGwIQjow6nMsd-144">
          <mxGeometry x="30" width="150" height="30" as="geometry">
            <mxRectangle width="150" height="30" as="alternateBounds" />
          </mxGeometry>
        </mxCell>
        <mxCell id="LNgfw14nGwIQjow6nMsd-147" value="" style="shape=tableRow;horizontal=0;startSize=0;swimlaneHead=0;swimlaneBody=0;fillColor=none;collapsible=0;dropTarget=0;points=[[0,0.5],[1,0.5]];portConstraint=eastwest;top=0;left=0;right=0;bottom=0;" vertex="1" parent="LNgfw14nGwIQjow6nMsd-131">
          <mxGeometry y="190" width="180" height="30" as="geometry" />
        </mxCell>
        <mxCell id="LNgfw14nGwIQjow6nMsd-148" value="" style="shape=partialRectangle;connectable=0;fillColor=none;top=0;left=0;bottom=0;right=0;editable=1;overflow=hidden;whiteSpace=wrap;html=1;" vertex="1" parent="LNgfw14nGwIQjow6nMsd-147">
          <mxGeometry width="30" height="30" as="geometry">
            <mxRectangle width="30" height="30" as="alternateBounds" />
          </mxGeometry>
        </mxCell>
        <mxCell id="LNgfw14nGwIQjow6nMsd-149" value="country" style="shape=partialRectangle;connectable=0;fillColor=none;top=0;left=0;bottom=0;right=0;align=left;spacingLeft=6;overflow=hidden;whiteSpace=wrap;html=1;" vertex="1" parent="LNgfw14nGwIQjow6nMsd-147">
          <mxGeometry x="30" width="150" height="30" as="geometry">
            <mxRectangle width="150" height="30" as="alternateBounds" />
          </mxGeometry>
        </mxCell>
        <mxCell id="LNgfw14nGwIQjow6nMsd-150" value="" style="shape=tableRow;horizontal=0;startSize=0;swimlaneHead=0;swimlaneBody=0;fillColor=none;collapsible=0;dropTarget=0;points=[[0,0.5],[1,0.5]];portConstraint=eastwest;top=0;left=0;right=0;bottom=0;" vertex="1" parent="LNgfw14nGwIQjow6nMsd-131">
          <mxGeometry y="220" width="180" height="30" as="geometry" />
        </mxCell>
        <mxCell id="LNgfw14nGwIQjow6nMsd-151" value="" style="shape=partialRectangle;connectable=0;fillColor=none;top=0;left=0;bottom=0;right=0;editable=1;overflow=hidden;whiteSpace=wrap;html=1;" vertex="1" parent="LNgfw14nGwIQjow6nMsd-150">
          <mxGeometry width="30" height="30" as="geometry">
            <mxRectangle width="30" height="30" as="alternateBounds" />
          </mxGeometry>
        </mxCell>
        <mxCell id="LNgfw14nGwIQjow6nMsd-152" value="marital_status" style="shape=partialRectangle;connectable=0;fillColor=none;top=0;left=0;bottom=0;right=0;align=left;spacingLeft=6;overflow=hidden;whiteSpace=wrap;html=1;" vertex="1" parent="LNgfw14nGwIQjow6nMsd-150">
          <mxGeometry x="30" width="150" height="30" as="geometry">
            <mxRectangle width="150" height="30" as="alternateBounds" />
          </mxGeometry>
        </mxCell>
        <mxCell id="LNgfw14nGwIQjow6nMsd-153" value="" style="shape=tableRow;horizontal=0;startSize=0;swimlaneHead=0;swimlaneBody=0;fillColor=none;collapsible=0;dropTarget=0;points=[[0,0.5],[1,0.5]];portConstraint=eastwest;top=0;left=0;right=0;bottom=0;" vertex="1" parent="LNgfw14nGwIQjow6nMsd-131">
          <mxGeometry y="250" width="180" height="30" as="geometry" />
        </mxCell>
        <mxCell id="LNgfw14nGwIQjow6nMsd-154" value="" style="shape=partialRectangle;connectable=0;fillColor=none;top=0;left=0;bottom=0;right=0;editable=1;overflow=hidden;whiteSpace=wrap;html=1;" vertex="1" parent="LNgfw14nGwIQjow6nMsd-153">
          <mxGeometry width="30" height="30" as="geometry">
            <mxRectangle width="30" height="30" as="alternateBounds" />
          </mxGeometry>
        </mxCell>
        <mxCell id="LNgfw14nGwIQjow6nMsd-155" value="gender" style="shape=partialRectangle;connectable=0;fillColor=none;top=0;left=0;bottom=0;right=0;align=left;spacingLeft=6;overflow=hidden;whiteSpace=wrap;html=1;" vertex="1" parent="LNgfw14nGwIQjow6nMsd-153">
          <mxGeometry x="30" width="150" height="30" as="geometry">
            <mxRectangle width="150" height="30" as="alternateBounds" />
          </mxGeometry>
        </mxCell>
        <mxCell id="LNgfw14nGwIQjow6nMsd-156" value="" style="shape=tableRow;horizontal=0;startSize=0;swimlaneHead=0;swimlaneBody=0;fillColor=none;collapsible=0;dropTarget=0;points=[[0,0.5],[1,0.5]];portConstraint=eastwest;top=0;left=0;right=0;bottom=0;" vertex="1" parent="LNgfw14nGwIQjow6nMsd-131">
          <mxGeometry y="280" width="180" height="30" as="geometry" />
        </mxCell>
        <mxCell id="LNgfw14nGwIQjow6nMsd-157" value="" style="shape=partialRectangle;connectable=0;fillColor=none;top=0;left=0;bottom=0;right=0;editable=1;overflow=hidden;whiteSpace=wrap;html=1;" vertex="1" parent="LNgfw14nGwIQjow6nMsd-156">
          <mxGeometry width="30" height="30" as="geometry">
            <mxRectangle width="30" height="30" as="alternateBounds" />
          </mxGeometry>
        </mxCell>
        <mxCell id="LNgfw14nGwIQjow6nMsd-158" value="birthdate" style="shape=partialRectangle;connectable=0;fillColor=none;top=0;left=0;bottom=0;right=0;align=left;spacingLeft=6;overflow=hidden;whiteSpace=wrap;html=1;" vertex="1" parent="LNgfw14nGwIQjow6nMsd-156">
          <mxGeometry x="30" width="150" height="30" as="geometry">
            <mxRectangle width="150" height="30" as="alternateBounds" />
          </mxGeometry>
        </mxCell>
        <mxCell id="LNgfw14nGwIQjow6nMsd-159" value="" style="shape=tableRow;horizontal=0;startSize=0;swimlaneHead=0;swimlaneBody=0;fillColor=none;collapsible=0;dropTarget=0;points=[[0,0.5],[1,0.5]];portConstraint=eastwest;top=0;left=0;right=0;bottom=0;" vertex="1" parent="LNgfw14nGwIQjow6nMsd-131">
          <mxGeometry y="310" width="180" height="30" as="geometry" />
        </mxCell>
        <mxCell id="LNgfw14nGwIQjow6nMsd-160" value="" style="shape=partialRectangle;connectable=0;fillColor=none;top=0;left=0;bottom=0;right=0;editable=1;overflow=hidden;whiteSpace=wrap;html=1;" vertex="1" parent="LNgfw14nGwIQjow6nMsd-159">
          <mxGeometry width="30" height="30" as="geometry">
            <mxRectangle width="30" height="30" as="alternateBounds" />
          </mxGeometry>
        </mxCell>
        <mxCell id="LNgfw14nGwIQjow6nMsd-161" value="country" style="shape=partialRectangle;connectable=0;fillColor=none;top=0;left=0;bottom=0;right=0;align=left;spacingLeft=6;overflow=hidden;whiteSpace=wrap;html=1;" vertex="1" parent="LNgfw14nGwIQjow6nMsd-159">
          <mxGeometry x="30" width="150" height="30" as="geometry">
            <mxRectangle width="150" height="30" as="alternateBounds" />
          </mxGeometry>
        </mxCell>
        <mxCell id="LNgfw14nGwIQjow6nMsd-162" value="gold.fact_sales" style="shape=table;startSize=35;container=1;collapsible=1;childLayout=tableLayout;fixedRows=1;rowLines=0;fontStyle=1;align=center;resizeLast=1;html=1;strokeColor=light-dark(#000000,#2348FF);fillColor=light-dark(#000000,#2348FF);" vertex="1" parent="1">
          <mxGeometry x="1660" y="300" width="180" height="300" as="geometry" />
        </mxCell>
        <mxCell id="LNgfw14nGwIQjow6nMsd-166" value="" style="shape=tableRow;horizontal=0;startSize=0;swimlaneHead=0;swimlaneBody=0;fillColor=none;collapsible=0;dropTarget=0;points=[[0,0.5],[1,0.5]];portConstraint=eastwest;top=0;left=0;right=0;bottom=0;" vertex="1" parent="LNgfw14nGwIQjow6nMsd-162">
          <mxGeometry y="35" width="180" height="30" as="geometry" />
        </mxCell>
        <mxCell id="LNgfw14nGwIQjow6nMsd-167" value="" style="shape=partialRectangle;connectable=0;fillColor=none;top=0;left=0;bottom=0;right=0;editable=1;overflow=hidden;whiteSpace=wrap;html=1;" vertex="1" parent="LNgfw14nGwIQjow6nMsd-166">
          <mxGeometry width="30" height="30" as="geometry">
            <mxRectangle width="30" height="30" as="alternateBounds" />
          </mxGeometry>
        </mxCell>
        <mxCell id="LNgfw14nGwIQjow6nMsd-168" value="order_number" style="shape=partialRectangle;connectable=0;fillColor=none;top=0;left=0;bottom=0;right=0;align=left;spacingLeft=6;overflow=hidden;whiteSpace=wrap;html=1;" vertex="1" parent="LNgfw14nGwIQjow6nMsd-166">
          <mxGeometry x="30" width="150" height="30" as="geometry">
            <mxRectangle width="150" height="30" as="alternateBounds" />
          </mxGeometry>
        </mxCell>
        <mxCell id="LNgfw14nGwIQjow6nMsd-169" value="" style="shape=tableRow;horizontal=0;startSize=0;swimlaneHead=0;swimlaneBody=0;fillColor=none;collapsible=0;dropTarget=0;points=[[0,0.5],[1,0.5]];portConstraint=eastwest;top=0;left=0;right=0;bottom=0;" vertex="1" parent="LNgfw14nGwIQjow6nMsd-162">
          <mxGeometry y="65" width="180" height="20" as="geometry" />
        </mxCell>
        <mxCell id="LNgfw14nGwIQjow6nMsd-170" value="" style="shape=partialRectangle;connectable=0;fillColor=none;top=0;left=0;bottom=0;right=0;editable=1;overflow=hidden;whiteSpace=wrap;html=1;" vertex="1" parent="LNgfw14nGwIQjow6nMsd-169">
          <mxGeometry width="30" height="20" as="geometry">
            <mxRectangle width="30" height="20" as="alternateBounds" />
          </mxGeometry>
        </mxCell>
        <mxCell id="LNgfw14nGwIQjow6nMsd-171" value="product_key" style="shape=partialRectangle;connectable=0;fillColor=none;top=0;left=0;bottom=0;right=0;align=left;spacingLeft=6;overflow=hidden;whiteSpace=wrap;html=1;" vertex="1" parent="LNgfw14nGwIQjow6nMsd-169">
          <mxGeometry x="30" width="150" height="20" as="geometry">
            <mxRectangle width="150" height="20" as="alternateBounds" />
          </mxGeometry>
        </mxCell>
        <mxCell id="LNgfw14nGwIQjow6nMsd-172" value="" style="shape=tableRow;horizontal=0;startSize=0;swimlaneHead=0;swimlaneBody=0;fillColor=none;collapsible=0;dropTarget=0;points=[[0,0.5],[1,0.5]];portConstraint=eastwest;top=0;left=0;right=0;bottom=0;" vertex="1" parent="LNgfw14nGwIQjow6nMsd-162">
          <mxGeometry y="85" width="180" height="30" as="geometry" />
        </mxCell>
        <mxCell id="LNgfw14nGwIQjow6nMsd-173" value="" style="shape=partialRectangle;connectable=0;fillColor=none;top=0;left=0;bottom=0;right=0;editable=1;overflow=hidden;whiteSpace=wrap;html=1;" vertex="1" parent="LNgfw14nGwIQjow6nMsd-172">
          <mxGeometry width="30" height="30" as="geometry">
            <mxRectangle width="30" height="30" as="alternateBounds" />
          </mxGeometry>
        </mxCell>
        <mxCell id="LNgfw14nGwIQjow6nMsd-174" value="customer_key" style="shape=partialRectangle;connectable=0;fillColor=none;top=0;left=0;bottom=0;right=0;align=left;spacingLeft=6;overflow=hidden;whiteSpace=wrap;html=1;" vertex="1" parent="LNgfw14nGwIQjow6nMsd-172">
          <mxGeometry x="30" width="150" height="30" as="geometry">
            <mxRectangle width="150" height="30" as="alternateBounds" />
          </mxGeometry>
        </mxCell>
        <mxCell id="LNgfw14nGwIQjow6nMsd-175" value="" style="shape=tableRow;horizontal=0;startSize=0;swimlaneHead=0;swimlaneBody=0;fillColor=none;collapsible=0;dropTarget=0;points=[[0,0.5],[1,0.5]];portConstraint=eastwest;top=0;left=0;right=0;bottom=0;" vertex="1" parent="LNgfw14nGwIQjow6nMsd-162">
          <mxGeometry y="115" width="180" height="30" as="geometry" />
        </mxCell>
        <mxCell id="LNgfw14nGwIQjow6nMsd-176" value="" style="shape=partialRectangle;connectable=0;fillColor=none;top=0;left=0;bottom=0;right=0;editable=1;overflow=hidden;whiteSpace=wrap;html=1;" vertex="1" parent="LNgfw14nGwIQjow6nMsd-175">
          <mxGeometry width="30" height="30" as="geometry">
            <mxRectangle width="30" height="30" as="alternateBounds" />
          </mxGeometry>
        </mxCell>
        <mxCell id="LNgfw14nGwIQjow6nMsd-177" value="order_date" style="shape=partialRectangle;connectable=0;fillColor=none;top=0;left=0;bottom=0;right=0;align=left;spacingLeft=6;overflow=hidden;whiteSpace=wrap;html=1;" vertex="1" parent="LNgfw14nGwIQjow6nMsd-175">
          <mxGeometry x="30" width="150" height="30" as="geometry">
            <mxRectangle width="150" height="30" as="alternateBounds" />
          </mxGeometry>
        </mxCell>
        <mxCell id="LNgfw14nGwIQjow6nMsd-178" value="" style="shape=tableRow;horizontal=0;startSize=0;swimlaneHead=0;swimlaneBody=0;fillColor=none;collapsible=0;dropTarget=0;points=[[0,0.5],[1,0.5]];portConstraint=eastwest;top=0;left=0;right=0;bottom=0;" vertex="1" parent="LNgfw14nGwIQjow6nMsd-162">
          <mxGeometry y="145" width="180" height="30" as="geometry" />
        </mxCell>
        <mxCell id="LNgfw14nGwIQjow6nMsd-179" value="" style="shape=partialRectangle;connectable=0;fillColor=none;top=0;left=0;bottom=0;right=0;editable=1;overflow=hidden;whiteSpace=wrap;html=1;" vertex="1" parent="LNgfw14nGwIQjow6nMsd-178">
          <mxGeometry width="30" height="30" as="geometry">
            <mxRectangle width="30" height="30" as="alternateBounds" />
          </mxGeometry>
        </mxCell>
        <mxCell id="LNgfw14nGwIQjow6nMsd-180" value="shipping_date" style="shape=partialRectangle;connectable=0;fillColor=none;top=0;left=0;bottom=0;right=0;align=left;spacingLeft=6;overflow=hidden;whiteSpace=wrap;html=1;" vertex="1" parent="LNgfw14nGwIQjow6nMsd-178">
          <mxGeometry x="30" width="150" height="30" as="geometry">
            <mxRectangle width="150" height="30" as="alternateBounds" />
          </mxGeometry>
        </mxCell>
        <mxCell id="LNgfw14nGwIQjow6nMsd-181" value="" style="shape=tableRow;horizontal=0;startSize=0;swimlaneHead=0;swimlaneBody=0;fillColor=none;collapsible=0;dropTarget=0;points=[[0,0.5],[1,0.5]];portConstraint=eastwest;top=0;left=0;right=0;bottom=0;" vertex="1" parent="LNgfw14nGwIQjow6nMsd-162">
          <mxGeometry y="175" width="180" height="30" as="geometry" />
        </mxCell>
        <mxCell id="LNgfw14nGwIQjow6nMsd-182" value="" style="shape=partialRectangle;connectable=0;fillColor=none;top=0;left=0;bottom=0;right=0;editable=1;overflow=hidden;whiteSpace=wrap;html=1;" vertex="1" parent="LNgfw14nGwIQjow6nMsd-181">
          <mxGeometry width="30" height="30" as="geometry">
            <mxRectangle width="30" height="30" as="alternateBounds" />
          </mxGeometry>
        </mxCell>
        <mxCell id="LNgfw14nGwIQjow6nMsd-183" value="due_date" style="shape=partialRectangle;connectable=0;fillColor=none;top=0;left=0;bottom=0;right=0;align=left;spacingLeft=6;overflow=hidden;whiteSpace=wrap;html=1;" vertex="1" parent="LNgfw14nGwIQjow6nMsd-181">
          <mxGeometry x="30" width="150" height="30" as="geometry">
            <mxRectangle width="150" height="30" as="alternateBounds" />
          </mxGeometry>
        </mxCell>
        <mxCell id="LNgfw14nGwIQjow6nMsd-184" value="" style="shape=tableRow;horizontal=0;startSize=0;swimlaneHead=0;swimlaneBody=0;fillColor=none;collapsible=0;dropTarget=0;points=[[0,0.5],[1,0.5]];portConstraint=eastwest;top=0;left=0;right=0;bottom=0;" vertex="1" parent="LNgfw14nGwIQjow6nMsd-162">
          <mxGeometry y="205" width="180" height="30" as="geometry" />
        </mxCell>
        <mxCell id="LNgfw14nGwIQjow6nMsd-185" value="" style="shape=partialRectangle;connectable=0;fillColor=none;top=0;left=0;bottom=0;right=0;editable=1;overflow=hidden;whiteSpace=wrap;html=1;" vertex="1" parent="LNgfw14nGwIQjow6nMsd-184">
          <mxGeometry width="30" height="30" as="geometry">
            <mxRectangle width="30" height="30" as="alternateBounds" />
          </mxGeometry>
        </mxCell>
        <mxCell id="LNgfw14nGwIQjow6nMsd-186" value="sales_amount" style="shape=partialRectangle;connectable=0;fillColor=none;top=0;left=0;bottom=0;right=0;align=left;spacingLeft=6;overflow=hidden;whiteSpace=wrap;html=1;" vertex="1" parent="LNgfw14nGwIQjow6nMsd-184">
          <mxGeometry x="30" width="150" height="30" as="geometry">
            <mxRectangle width="150" height="30" as="alternateBounds" />
          </mxGeometry>
        </mxCell>
        <mxCell id="LNgfw14nGwIQjow6nMsd-187" value="" style="shape=tableRow;horizontal=0;startSize=0;swimlaneHead=0;swimlaneBody=0;fillColor=none;collapsible=0;dropTarget=0;points=[[0,0.5],[1,0.5]];portConstraint=eastwest;top=0;left=0;right=0;bottom=0;" vertex="1" parent="LNgfw14nGwIQjow6nMsd-162">
          <mxGeometry y="235" width="180" height="30" as="geometry" />
        </mxCell>
        <mxCell id="LNgfw14nGwIQjow6nMsd-188" value="" style="shape=partialRectangle;connectable=0;fillColor=none;top=0;left=0;bottom=0;right=0;editable=1;overflow=hidden;whiteSpace=wrap;html=1;" vertex="1" parent="LNgfw14nGwIQjow6nMsd-187">
          <mxGeometry width="30" height="30" as="geometry">
            <mxRectangle width="30" height="30" as="alternateBounds" />
          </mxGeometry>
        </mxCell>
        <mxCell id="LNgfw14nGwIQjow6nMsd-189" value="quantity" style="shape=partialRectangle;connectable=0;fillColor=none;top=0;left=0;bottom=0;right=0;align=left;spacingLeft=6;overflow=hidden;whiteSpace=wrap;html=1;" vertex="1" parent="LNgfw14nGwIQjow6nMsd-187">
          <mxGeometry x="30" width="150" height="30" as="geometry">
            <mxRectangle width="150" height="30" as="alternateBounds" />
          </mxGeometry>
        </mxCell>
        <mxCell id="LNgfw14nGwIQjow6nMsd-190" value="" style="shape=tableRow;horizontal=0;startSize=0;swimlaneHead=0;swimlaneBody=0;fillColor=none;collapsible=0;dropTarget=0;points=[[0,0.5],[1,0.5]];portConstraint=eastwest;top=0;left=0;right=0;bottom=0;" vertex="1" parent="LNgfw14nGwIQjow6nMsd-162">
          <mxGeometry y="265" width="180" height="30" as="geometry" />
        </mxCell>
        <mxCell id="LNgfw14nGwIQjow6nMsd-191" value="" style="shape=partialRectangle;connectable=0;fillColor=none;top=0;left=0;bottom=0;right=0;editable=1;overflow=hidden;whiteSpace=wrap;html=1;" vertex="1" parent="LNgfw14nGwIQjow6nMsd-190">
          <mxGeometry width="30" height="30" as="geometry">
            <mxRectangle width="30" height="30" as="alternateBounds" />
          </mxGeometry>
        </mxCell>
        <mxCell id="LNgfw14nGwIQjow6nMsd-192" value="price" style="shape=partialRectangle;connectable=0;fillColor=none;top=0;left=0;bottom=0;right=0;align=left;spacingLeft=6;overflow=hidden;whiteSpace=wrap;html=1;" vertex="1" parent="LNgfw14nGwIQjow6nMsd-190">
          <mxGeometry x="30" width="150" height="30" as="geometry">
            <mxRectangle width="150" height="30" as="alternateBounds" />
          </mxGeometry>
        </mxCell>
        <mxCell id="LNgfw14nGwIQjow6nMsd-196" value="gold.dim_products" style="shape=table;startSize=40;container=1;collapsible=1;childLayout=tableLayout;fixedRows=1;rowLines=0;fontStyle=1;align=center;resizeLast=1;html=1;fillColor=light-dark(#D79B00,#D29D00);" vertex="1" parent="1">
          <mxGeometry x="2020" y="280" width="180" height="370" as="geometry" />
        </mxCell>
        <mxCell id="LNgfw14nGwIQjow6nMsd-197" value="" style="shape=tableRow;horizontal=0;startSize=0;swimlaneHead=0;swimlaneBody=0;fillColor=none;collapsible=0;dropTarget=0;points=[[0,0.5],[1,0.5]];portConstraint=eastwest;top=0;left=0;right=0;bottom=1;" vertex="1" parent="LNgfw14nGwIQjow6nMsd-196">
          <mxGeometry y="40" width="180" height="30" as="geometry" />
        </mxCell>
        <mxCell id="LNgfw14nGwIQjow6nMsd-198" value="PK" style="shape=partialRectangle;connectable=0;fillColor=none;top=0;left=0;bottom=0;right=0;fontStyle=1;overflow=hidden;whiteSpace=wrap;html=1;" vertex="1" parent="LNgfw14nGwIQjow6nMsd-197">
          <mxGeometry width="30" height="30" as="geometry">
            <mxRectangle width="30" height="30" as="alternateBounds" />
          </mxGeometry>
        </mxCell>
        <mxCell id="LNgfw14nGwIQjow6nMsd-199" value="product_key" style="shape=partialRectangle;connectable=0;fillColor=none;top=0;left=0;bottom=0;right=0;align=left;spacingLeft=6;fontStyle=5;overflow=hidden;whiteSpace=wrap;html=1;" vertex="1" parent="LNgfw14nGwIQjow6nMsd-197">
          <mxGeometry x="30" width="150" height="30" as="geometry">
            <mxRectangle width="150" height="30" as="alternateBounds" />
          </mxGeometry>
        </mxCell>
        <mxCell id="LNgfw14nGwIQjow6nMsd-200" value="" style="shape=tableRow;horizontal=0;startSize=0;swimlaneHead=0;swimlaneBody=0;fillColor=none;collapsible=0;dropTarget=0;points=[[0,0.5],[1,0.5]];portConstraint=eastwest;top=0;left=0;right=0;bottom=0;" vertex="1" parent="LNgfw14nGwIQjow6nMsd-196">
          <mxGeometry y="70" width="180" height="30" as="geometry" />
        </mxCell>
        <mxCell id="LNgfw14nGwIQjow6nMsd-201" value="" style="shape=partialRectangle;connectable=0;fillColor=none;top=0;left=0;bottom=0;right=0;editable=1;overflow=hidden;whiteSpace=wrap;html=1;" vertex="1" parent="LNgfw14nGwIQjow6nMsd-200">
          <mxGeometry width="30" height="30" as="geometry">
            <mxRectangle width="30" height="30" as="alternateBounds" />
          </mxGeometry>
        </mxCell>
        <mxCell id="LNgfw14nGwIQjow6nMsd-202" value="product_id" style="shape=partialRectangle;connectable=0;fillColor=none;top=0;left=0;bottom=0;right=0;align=left;spacingLeft=6;overflow=hidden;whiteSpace=wrap;html=1;" vertex="1" parent="LNgfw14nGwIQjow6nMsd-200">
          <mxGeometry x="30" width="150" height="30" as="geometry">
            <mxRectangle width="150" height="30" as="alternateBounds" />
          </mxGeometry>
        </mxCell>
        <mxCell id="LNgfw14nGwIQjow6nMsd-203" value="" style="shape=tableRow;horizontal=0;startSize=0;swimlaneHead=0;swimlaneBody=0;fillColor=none;collapsible=0;dropTarget=0;points=[[0,0.5],[1,0.5]];portConstraint=eastwest;top=0;left=0;right=0;bottom=0;" vertex="1" parent="LNgfw14nGwIQjow6nMsd-196">
          <mxGeometry y="100" width="180" height="30" as="geometry" />
        </mxCell>
        <mxCell id="LNgfw14nGwIQjow6nMsd-204" value="" style="shape=partialRectangle;connectable=0;fillColor=none;top=0;left=0;bottom=0;right=0;editable=1;overflow=hidden;whiteSpace=wrap;html=1;" vertex="1" parent="LNgfw14nGwIQjow6nMsd-203">
          <mxGeometry width="30" height="30" as="geometry">
            <mxRectangle width="30" height="30" as="alternateBounds" />
          </mxGeometry>
        </mxCell>
        <mxCell id="LNgfw14nGwIQjow6nMsd-205" value="product_number" style="shape=partialRectangle;connectable=0;fillColor=none;top=0;left=0;bottom=0;right=0;align=left;spacingLeft=6;overflow=hidden;whiteSpace=wrap;html=1;" vertex="1" parent="LNgfw14nGwIQjow6nMsd-203">
          <mxGeometry x="30" width="150" height="30" as="geometry">
            <mxRectangle width="150" height="30" as="alternateBounds" />
          </mxGeometry>
        </mxCell>
        <mxCell id="LNgfw14nGwIQjow6nMsd-206" value="" style="shape=tableRow;horizontal=0;startSize=0;swimlaneHead=0;swimlaneBody=0;fillColor=none;collapsible=0;dropTarget=0;points=[[0,0.5],[1,0.5]];portConstraint=eastwest;top=0;left=0;right=0;bottom=0;" vertex="1" parent="LNgfw14nGwIQjow6nMsd-196">
          <mxGeometry y="130" width="180" height="30" as="geometry" />
        </mxCell>
        <mxCell id="LNgfw14nGwIQjow6nMsd-207" value="" style="shape=partialRectangle;connectable=0;fillColor=none;top=0;left=0;bottom=0;right=0;editable=1;overflow=hidden;whiteSpace=wrap;html=1;" vertex="1" parent="LNgfw14nGwIQjow6nMsd-206">
          <mxGeometry width="30" height="30" as="geometry">
            <mxRectangle width="30" height="30" as="alternateBounds" />
          </mxGeometry>
        </mxCell>
        <mxCell id="LNgfw14nGwIQjow6nMsd-208" value="product_name" style="shape=partialRectangle;connectable=0;fillColor=none;top=0;left=0;bottom=0;right=0;align=left;spacingLeft=6;overflow=hidden;whiteSpace=wrap;html=1;" vertex="1" parent="LNgfw14nGwIQjow6nMsd-206">
          <mxGeometry x="30" width="150" height="30" as="geometry">
            <mxRectangle width="150" height="30" as="alternateBounds" />
          </mxGeometry>
        </mxCell>
        <mxCell id="LNgfw14nGwIQjow6nMsd-209" value="" style="shape=tableRow;horizontal=0;startSize=0;swimlaneHead=0;swimlaneBody=0;fillColor=none;collapsible=0;dropTarget=0;points=[[0,0.5],[1,0.5]];portConstraint=eastwest;top=0;left=0;right=0;bottom=0;" vertex="1" parent="LNgfw14nGwIQjow6nMsd-196">
          <mxGeometry y="160" width="180" height="30" as="geometry" />
        </mxCell>
        <mxCell id="LNgfw14nGwIQjow6nMsd-210" value="" style="shape=partialRectangle;connectable=0;fillColor=none;top=0;left=0;bottom=0;right=0;editable=1;overflow=hidden;whiteSpace=wrap;html=1;" vertex="1" parent="LNgfw14nGwIQjow6nMsd-209">
          <mxGeometry width="30" height="30" as="geometry">
            <mxRectangle width="30" height="30" as="alternateBounds" />
          </mxGeometry>
        </mxCell>
        <mxCell id="LNgfw14nGwIQjow6nMsd-211" value="category_id" style="shape=partialRectangle;connectable=0;fillColor=none;top=0;left=0;bottom=0;right=0;align=left;spacingLeft=6;overflow=hidden;whiteSpace=wrap;html=1;" vertex="1" parent="LNgfw14nGwIQjow6nMsd-209">
          <mxGeometry x="30" width="150" height="30" as="geometry">
            <mxRectangle width="150" height="30" as="alternateBounds" />
          </mxGeometry>
        </mxCell>
        <mxCell id="LNgfw14nGwIQjow6nMsd-212" value="" style="shape=tableRow;horizontal=0;startSize=0;swimlaneHead=0;swimlaneBody=0;fillColor=none;collapsible=0;dropTarget=0;points=[[0,0.5],[1,0.5]];portConstraint=eastwest;top=0;left=0;right=0;bottom=0;" vertex="1" parent="LNgfw14nGwIQjow6nMsd-196">
          <mxGeometry y="190" width="180" height="30" as="geometry" />
        </mxCell>
        <mxCell id="LNgfw14nGwIQjow6nMsd-213" value="" style="shape=partialRectangle;connectable=0;fillColor=none;top=0;left=0;bottom=0;right=0;editable=1;overflow=hidden;whiteSpace=wrap;html=1;" vertex="1" parent="LNgfw14nGwIQjow6nMsd-212">
          <mxGeometry width="30" height="30" as="geometry">
            <mxRectangle width="30" height="30" as="alternateBounds" />
          </mxGeometry>
        </mxCell>
        <mxCell id="LNgfw14nGwIQjow6nMsd-214" value="category" style="shape=partialRectangle;connectable=0;fillColor=none;top=0;left=0;bottom=0;right=0;align=left;spacingLeft=6;overflow=hidden;whiteSpace=wrap;html=1;" vertex="1" parent="LNgfw14nGwIQjow6nMsd-212">
          <mxGeometry x="30" width="150" height="30" as="geometry">
            <mxRectangle width="150" height="30" as="alternateBounds" />
          </mxGeometry>
        </mxCell>
        <mxCell id="LNgfw14nGwIQjow6nMsd-215" value="" style="shape=tableRow;horizontal=0;startSize=0;swimlaneHead=0;swimlaneBody=0;fillColor=none;collapsible=0;dropTarget=0;points=[[0,0.5],[1,0.5]];portConstraint=eastwest;top=0;left=0;right=0;bottom=0;" vertex="1" parent="LNgfw14nGwIQjow6nMsd-196">
          <mxGeometry y="220" width="180" height="30" as="geometry" />
        </mxCell>
        <mxCell id="LNgfw14nGwIQjow6nMsd-216" value="" style="shape=partialRectangle;connectable=0;fillColor=none;top=0;left=0;bottom=0;right=0;editable=1;overflow=hidden;whiteSpace=wrap;html=1;" vertex="1" parent="LNgfw14nGwIQjow6nMsd-215">
          <mxGeometry width="30" height="30" as="geometry">
            <mxRectangle width="30" height="30" as="alternateBounds" />
          </mxGeometry>
        </mxCell>
        <mxCell id="LNgfw14nGwIQjow6nMsd-217" value="subcategory" style="shape=partialRectangle;connectable=0;fillColor=none;top=0;left=0;bottom=0;right=0;align=left;spacingLeft=6;overflow=hidden;whiteSpace=wrap;html=1;" vertex="1" parent="LNgfw14nGwIQjow6nMsd-215">
          <mxGeometry x="30" width="150" height="30" as="geometry">
            <mxRectangle width="150" height="30" as="alternateBounds" />
          </mxGeometry>
        </mxCell>
        <mxCell id="LNgfw14nGwIQjow6nMsd-218" value="" style="shape=tableRow;horizontal=0;startSize=0;swimlaneHead=0;swimlaneBody=0;fillColor=none;collapsible=0;dropTarget=0;points=[[0,0.5],[1,0.5]];portConstraint=eastwest;top=0;left=0;right=0;bottom=0;" vertex="1" parent="LNgfw14nGwIQjow6nMsd-196">
          <mxGeometry y="250" width="180" height="30" as="geometry" />
        </mxCell>
        <mxCell id="LNgfw14nGwIQjow6nMsd-219" value="" style="shape=partialRectangle;connectable=0;fillColor=none;top=0;left=0;bottom=0;right=0;editable=1;overflow=hidden;whiteSpace=wrap;html=1;" vertex="1" parent="LNgfw14nGwIQjow6nMsd-218">
          <mxGeometry width="30" height="30" as="geometry">
            <mxRectangle width="30" height="30" as="alternateBounds" />
          </mxGeometry>
        </mxCell>
        <mxCell id="LNgfw14nGwIQjow6nMsd-220" value="maintenance" style="shape=partialRectangle;connectable=0;fillColor=none;top=0;left=0;bottom=0;right=0;align=left;spacingLeft=6;overflow=hidden;whiteSpace=wrap;html=1;" vertex="1" parent="LNgfw14nGwIQjow6nMsd-218">
          <mxGeometry x="30" width="150" height="30" as="geometry">
            <mxRectangle width="150" height="30" as="alternateBounds" />
          </mxGeometry>
        </mxCell>
        <mxCell id="LNgfw14nGwIQjow6nMsd-221" value="" style="shape=tableRow;horizontal=0;startSize=0;swimlaneHead=0;swimlaneBody=0;fillColor=none;collapsible=0;dropTarget=0;points=[[0,0.5],[1,0.5]];portConstraint=eastwest;top=0;left=0;right=0;bottom=0;" vertex="1" parent="LNgfw14nGwIQjow6nMsd-196">
          <mxGeometry y="280" width="180" height="30" as="geometry" />
        </mxCell>
        <mxCell id="LNgfw14nGwIQjow6nMsd-222" value="" style="shape=partialRectangle;connectable=0;fillColor=none;top=0;left=0;bottom=0;right=0;editable=1;overflow=hidden;whiteSpace=wrap;html=1;" vertex="1" parent="LNgfw14nGwIQjow6nMsd-221">
          <mxGeometry width="30" height="30" as="geometry">
            <mxRectangle width="30" height="30" as="alternateBounds" />
          </mxGeometry>
        </mxCell>
        <mxCell id="LNgfw14nGwIQjow6nMsd-223" value="cost" style="shape=partialRectangle;connectable=0;fillColor=none;top=0;left=0;bottom=0;right=0;align=left;spacingLeft=6;overflow=hidden;whiteSpace=wrap;html=1;" vertex="1" parent="LNgfw14nGwIQjow6nMsd-221">
          <mxGeometry x="30" width="150" height="30" as="geometry">
            <mxRectangle width="150" height="30" as="alternateBounds" />
          </mxGeometry>
        </mxCell>
        <mxCell id="LNgfw14nGwIQjow6nMsd-224" value="" style="shape=tableRow;horizontal=0;startSize=0;swimlaneHead=0;swimlaneBody=0;fillColor=none;collapsible=0;dropTarget=0;points=[[0,0.5],[1,0.5]];portConstraint=eastwest;top=0;left=0;right=0;bottom=0;" vertex="1" parent="LNgfw14nGwIQjow6nMsd-196">
          <mxGeometry y="310" width="180" height="30" as="geometry" />
        </mxCell>
        <mxCell id="LNgfw14nGwIQjow6nMsd-225" value="" style="shape=partialRectangle;connectable=0;fillColor=none;top=0;left=0;bottom=0;right=0;editable=1;overflow=hidden;whiteSpace=wrap;html=1;" vertex="1" parent="LNgfw14nGwIQjow6nMsd-224">
          <mxGeometry width="30" height="30" as="geometry">
            <mxRectangle width="30" height="30" as="alternateBounds" />
          </mxGeometry>
        </mxCell>
        <mxCell id="LNgfw14nGwIQjow6nMsd-226" value="product_line" style="shape=partialRectangle;connectable=0;fillColor=none;top=0;left=0;bottom=0;right=0;align=left;spacingLeft=6;overflow=hidden;whiteSpace=wrap;html=1;" vertex="1" parent="LNgfw14nGwIQjow6nMsd-224">
          <mxGeometry x="30" width="150" height="30" as="geometry">
            <mxRectangle width="150" height="30" as="alternateBounds" />
          </mxGeometry>
        </mxCell>
        <mxCell id="LNgfw14nGwIQjow6nMsd-227" value="" style="shape=tableRow;horizontal=0;startSize=0;swimlaneHead=0;swimlaneBody=0;fillColor=none;collapsible=0;dropTarget=0;points=[[0,0.5],[1,0.5]];portConstraint=eastwest;top=0;left=0;right=0;bottom=0;" vertex="1" parent="LNgfw14nGwIQjow6nMsd-196">
          <mxGeometry y="340" width="180" height="30" as="geometry" />
        </mxCell>
        <mxCell id="LNgfw14nGwIQjow6nMsd-228" value="" style="shape=partialRectangle;connectable=0;fillColor=none;top=0;left=0;bottom=0;right=0;editable=1;overflow=hidden;whiteSpace=wrap;html=1;" vertex="1" parent="LNgfw14nGwIQjow6nMsd-227">
          <mxGeometry width="30" height="30" as="geometry">
            <mxRectangle width="30" height="30" as="alternateBounds" />
          </mxGeometry>
        </mxCell>
        <mxCell id="LNgfw14nGwIQjow6nMsd-229" value="start_date" style="shape=partialRectangle;connectable=0;fillColor=none;top=0;left=0;bottom=0;right=0;align=left;spacingLeft=6;overflow=hidden;whiteSpace=wrap;html=1;" vertex="1" parent="LNgfw14nGwIQjow6nMsd-227">
          <mxGeometry x="30" width="150" height="30" as="geometry">
            <mxRectangle width="150" height="30" as="alternateBounds" />
          </mxGeometry>
        </mxCell>
        <mxCell id="LNgfw14nGwIQjow6nMsd-230" value="FK1" style="text;html=1;whiteSpace=wrap;strokeColor=none;fillColor=none;align=center;verticalAlign=middle;rounded=0;" vertex="1" parent="1">
          <mxGeometry x="1660" y="360" width="30" height="30" as="geometry" />
        </mxCell>
        <mxCell id="LNgfw14nGwIQjow6nMsd-231" value="FK2" style="text;html=1;whiteSpace=wrap;strokeColor=none;fillColor=none;align=center;verticalAlign=middle;rounded=0;" vertex="1" parent="1">
          <mxGeometry x="1660" y="390" width="30" height="20" as="geometry" />
        </mxCell>
        <mxCell id="LNgfw14nGwIQjow6nMsd-232" value="" style="edgeStyle=entityRelationEdgeStyle;fontSize=12;html=1;endArrow=ERzeroToMany;startArrow=ERmandOne;rounded=0;entryX=0;entryY=0.5;entryDx=0;entryDy=0;" edge="1" parent="1" target="LNgfw14nGwIQjow6nMsd-231">
          <mxGeometry width="100" height="100" relative="1" as="geometry">
            <mxPoint x="1500" y="350" as="sourcePoint" />
            <mxPoint x="1650" y="400" as="targetPoint" />
          </mxGeometry>
        </mxCell>
        <mxCell id="LNgfw14nGwIQjow6nMsd-233" value="" style="edgeStyle=entityRelationEdgeStyle;fontSize=12;html=1;endArrow=ERzeroToMany;startArrow=ERmandOne;rounded=0;entryX=1;entryY=0.5;entryDx=0;entryDy=0;exitX=0;exitY=0.5;exitDx=0;exitDy=0;" edge="1" parent="1" source="LNgfw14nGwIQjow6nMsd-197" target="LNgfw14nGwIQjow6nMsd-169">
          <mxGeometry width="100" height="100" relative="1" as="geometry">
            <mxPoint x="1860" y="140" as="sourcePoint" />
            <mxPoint x="1910" y="370" as="targetPoint" />
          </mxGeometry>
        </mxCell>
        <mxCell id="LNgfw14nGwIQjow6nMsd-234" value="&lt;font style=&quot;font-size: 10px;&quot;&gt;crm_sales_details&lt;/font&gt;" style="rounded=1;whiteSpace=wrap;html=1;fillColor=none;strokeColor=light-dark(#000000,#FFFFFF);" vertex="1" parent="1">
          <mxGeometry x="703.25" y="1445.25" width="90" height="24.75" as="geometry" />
        </mxCell>
        <mxCell id="LNgfw14nGwIQjow6nMsd-235" value="&lt;font style=&quot;font-size: 10px;&quot;&gt;crm_cust_info&lt;/font&gt;" style="rounded=1;whiteSpace=wrap;html=1;fillColor=none;strokeColor=light-dark(#000000,#FFFFFF);" vertex="1" parent="1">
          <mxGeometry x="703.25" y="1477.92" width="90" height="24.75" as="geometry" />
        </mxCell>
        <mxCell id="LNgfw14nGwIQjow6nMsd-236" value="&lt;font style=&quot;font-size: 10px;&quot;&gt;crm_prd_info&lt;/font&gt;" style="rounded=1;whiteSpace=wrap;html=1;fillColor=none;strokeColor=light-dark(#000000,#FFFFFF);" vertex="1" parent="1">
          <mxGeometry x="703.75" y="1510.59" width="90" height="24.75" as="geometry" />
        </mxCell>
        <mxCell id="LNgfw14nGwIQjow6nMsd-237" value="&lt;font style=&quot;font-size: 10px;&quot;&gt;erp_cust_az12&lt;/font&gt;" style="rounded=1;whiteSpace=wrap;html=1;fillColor=none;strokeColor=light-dark(#000000,#FFFFFF);" vertex="1" parent="1">
          <mxGeometry x="703.75" y="1600" width="90" height="24.75" as="geometry" />
        </mxCell>
        <mxCell id="LNgfw14nGwIQjow6nMsd-238" value="&lt;font style=&quot;font-size: 10px;&quot;&gt;erp_loc_a101&lt;/font&gt;" style="rounded=1;whiteSpace=wrap;html=1;fillColor=none;strokeColor=light-dark(#000000,#FFFFFF);" vertex="1" parent="1">
          <mxGeometry x="703.75" y="1630" width="90" height="24.75" as="geometry" />
        </mxCell>
        <mxCell id="LNgfw14nGwIQjow6nMsd-239" value="&lt;font style=&quot;font-size: 10px;&quot;&gt;erp_px_cat_g1v2&lt;/font&gt;" style="rounded=1;whiteSpace=wrap;html=1;fillColor=none;strokeColor=light-dark(#000000,#FFFFFF);" vertex="1" parent="1">
          <mxGeometry x="703.25" y="1660" width="90" height="24.75" as="geometry" />
        </mxCell>
        <mxCell id="LNgfw14nGwIQjow6nMsd-247" value="&lt;font style=&quot;font-size: 10px;&quot;&gt;fact_sales&lt;/font&gt;" style="rounded=1;whiteSpace=wrap;html=1;fillColor=none;strokeColor=light-dark(#D79B00,#D29D00);" vertex="1" parent="1">
          <mxGeometry x="884.75" y="1460" width="90" height="24.75" as="geometry" />
        </mxCell>
        <mxCell id="LNgfw14nGwIQjow6nMsd-248" value="&lt;font style=&quot;font-size: 10px;&quot;&gt;dim_customers&lt;/font&gt;" style="rounded=1;whiteSpace=wrap;html=1;fillColor=none;strokeColor=light-dark(#D79B00,#D29D00);" vertex="1" parent="1">
          <mxGeometry x="884.25" y="1552.63" width="90" height="24.75" as="geometry" />
        </mxCell>
        <mxCell id="LNgfw14nGwIQjow6nMsd-249" value="&lt;font style=&quot;font-size: 10px;&quot;&gt;dim_products&lt;/font&gt;" style="rounded=1;whiteSpace=wrap;html=1;fillColor=none;strokeColor=light-dark(#D79B00,#D29D00);" vertex="1" parent="1">
          <mxGeometry x="884.75" y="1622.8899999999999" width="90" height="24.75" as="geometry" />
        </mxCell>
        <mxCell id="LNgfw14nGwIQjow6nMsd-253" value="" style="endArrow=classic;html=1;rounded=0;entryX=0;entryY=0.5;entryDx=0;entryDy=0;jumpStyle=gap;" edge="1" parent="1" target="LNgfw14nGwIQjow6nMsd-247">
          <mxGeometry width="50" height="50" relative="1" as="geometry">
            <mxPoint x="795" y="1460" as="sourcePoint" />
            <mxPoint x="845" y="1410" as="targetPoint" />
          </mxGeometry>
        </mxCell>
        <mxCell id="LNgfw14nGwIQjow6nMsd-254" value="" style="endArrow=classic;html=1;rounded=0;entryX=0;entryY=0.5;entryDx=0;entryDy=0;jumpStyle=gap;" edge="1" parent="1" target="LNgfw14nGwIQjow6nMsd-248">
          <mxGeometry width="50" height="50" relative="1" as="geometry">
            <mxPoint x="793.25" y="1490.67" as="sourcePoint" />
            <mxPoint x="883.25" y="1502.67" as="targetPoint" />
          </mxGeometry>
        </mxCell>
        <mxCell id="LNgfw14nGwIQjow6nMsd-255" value="" style="endArrow=classic;html=1;rounded=0;entryX=0;entryY=0.5;entryDx=0;entryDy=0;exitX=1;exitY=0.5;exitDx=0;exitDy=0;jumpStyle=gap;" edge="1" parent="1" source="LNgfw14nGwIQjow6nMsd-237" target="LNgfw14nGwIQjow6nMsd-248">
          <mxGeometry width="50" height="50" relative="1" as="geometry">
            <mxPoint x="808.5" y="1548.5600000000002" as="sourcePoint" />
            <mxPoint x="899.25" y="1622.89" as="targetPoint" />
          </mxGeometry>
        </mxCell>
        <mxCell id="LNgfw14nGwIQjow6nMsd-256" value="" style="endArrow=classic;html=1;rounded=0;entryX=0;entryY=0.5;entryDx=0;entryDy=0;exitX=1;exitY=0.5;exitDx=0;exitDy=0;jumpStyle=gap;" edge="1" parent="1" source="LNgfw14nGwIQjow6nMsd-238" target="LNgfw14nGwIQjow6nMsd-248">
          <mxGeometry width="50" height="50" relative="1" as="geometry">
            <mxPoint x="793.25" y="1647" as="sourcePoint" />
            <mxPoint x="883.25" y="1600" as="targetPoint" />
          </mxGeometry>
        </mxCell>
        <mxCell id="LNgfw14nGwIQjow6nMsd-257" value="" style="endArrow=classic;html=1;rounded=0;entryX=0;entryY=0.5;entryDx=0;entryDy=0;exitX=1;exitY=0.5;exitDx=0;exitDy=0;jumpStyle=gap;" edge="1" parent="1" source="LNgfw14nGwIQjow6nMsd-236" target="LNgfw14nGwIQjow6nMsd-249">
          <mxGeometry width="50" height="50" relative="1" as="geometry">
            <mxPoint x="794" y="1520" as="sourcePoint" />
            <mxPoint x="884.75" y="1594.33" as="targetPoint" />
          </mxGeometry>
        </mxCell>
        <mxCell id="LNgfw14nGwIQjow6nMsd-258" value="" style="endArrow=classic;html=1;rounded=0;entryX=0;entryY=0.5;entryDx=0;entryDy=0;exitX=1;exitY=0.5;exitDx=0;exitDy=0;jumpStyle=gap;" edge="1" parent="1" target="LNgfw14nGwIQjow6nMsd-249">
          <mxGeometry width="50" height="50" relative="1" as="geometry">
            <mxPoint x="793.25" y="1670" as="sourcePoint" />
            <mxPoint x="884.25" y="1745" as="targetPoint" />
          </mxGeometry>
        </mxCell>
      </root>
    </mxGraphModel>
  </diagram>
</mxfile>
